<svg id="Group_3663" data-name="Group 3663" xmlns="http://www.w3.org/2000/svg" xmlns:xlink="http://www.w3.org/1999/xlink" width="49.782" height="53.279" viewBox="0 0 49.782 53.279">
  <defs>
    <clipPath id="clip-path">
      <rect id="Rectangle_1605" data-name="Rectangle 1605" width="49.782" height="53.279" fill="#00e487"/>
    </clipPath>
  </defs>
  <g id="Group_3662" data-name="Group 3662" clip-path="url(#clip-path)">
    <path id="Path_86667" data-name="Path 86667" d="M189.842,20.99c-.113,1.063-.212,2.127-.341,3.188a37.987,37.987,0,0,1-3.058,11.158.9.9,0,1,1-1.64-.7,36.187,36.187,0,0,0,2.772-9.585,43.234,43.234,0,0,0,.321-10.224c-.073-.809-.175-1.615-.262-2.423-.1-.939-.247-1.112-1.145-1.274a49.241,49.241,0,0,1-11.933-3.768,50.627,50.627,0,0,1-8.712-5.138c-.791-.579-.876-.549-1.7,0-1.66,1.1-3.329,2.192-5.025,3.236a1.35,1.35,0,0,1-1.071.093c-.665-.279-.608-1.122.065-1.548,1.2-.76,2.415-1.5,3.611-2.265.559-.359,1.087-.766,1.63-1.149a2.578,2.578,0,0,1,3.282,0,49.615,49.615,0,0,0,10.779,6.058,51.173,51.173,0,0,0,9.7,2.791,2.632,2.632,0,0,1,2.272,2.5c.128,1.211.236,2.424.359,3.636.018.18.063.357.1.535Z" transform="translate(-140.06 0.001)" fill="#00e487"/>
    <path id="Path_86668" data-name="Path 86668" d="M306.006,312.909a1.618,1.618,0,0,1-1.212.656c-.759.147-1.513.324-2.268.49a4.845,4.845,0,0,0-3.954,4.05c-.18.847-.373,1.692-.549,2.54a.861.861,0,0,1-.9.8c-.523-.005-.778-.319-.887-.816-.234-1.061-.473-2.122-.752-3.171a4.294,4.294,0,0,0-3.238-3.234c-1.032-.273-2.074-.514-3.118-.74-.515-.111-.86-.351-.86-.907s.343-.795.859-.906c1.062-.229,2.123-.469,3.171-.755a4.273,4.273,0,0,0,3.171-3.166c.287-1.047.524-2.109.753-3.171.111-.513.345-.864.9-.869s.81.334.912.853c.164.832.363,1.656.538,2.486a4.9,4.9,0,0,0,4.17,4.1,21.805,21.805,0,0,1,2.157.479,5.782,5.782,0,0,1,1.108.617Zm-4.8-.338a6.146,6.146,0,0,1-4.086-4.059,6.158,6.158,0,0,1-4.046,4.067,6.2,6.2,0,0,1,4.061,4.055,6.136,6.136,0,0,1,4.07-4.063" transform="translate(-256.224 -269.949)" fill="#00e487"/>
    <path id="Path_86669" data-name="Path 86669" d="M114.082,410.9c-1.329-.482-2.678-.916-3.984-1.455A31.885,31.885,0,0,1,101.342,404a.9.9,0,0,1-.315-1.172.825.825,0,0,1,1.026-.444,1.7,1.7,0,0,1,.6.383,30.857,30.857,0,0,0,11.441,6.208,1.978,1.978,0,0,0,1.065,0,31.018,31.018,0,0,0,8.669-4.1c.107-.073.214-.145.323-.215a.928.928,0,0,1,1.369.142.873.873,0,0,1-.35,1.319c-1.649.976-3.273,2.013-5,2.842-1.52.732-3.159,1.216-4.744,1.811a2.526,2.526,0,0,0-.238.117Z" transform="translate(-89.701 -357.623)" fill="#00e487"/>
    <path id="Path_86670" data-name="Path 86670" d="M128.237,169.418a3.476,3.476,0,0,1,.164-.806,5.407,5.407,0,0,1,2.929-2.934,2.622,2.622,0,0,1,2.929.771c.9.908,1.779,1.827,2.673,2.736.678.689,1.152.689,1.831,0q4.135-4.214,8.266-8.433a2.791,2.791,0,0,1,4.4,0c.26.263.521.525.775.792a2.863,2.863,0,0,1-.019,4.244Q146.1,172,140.007,178.222a2.963,2.963,0,0,1-1.916,1,2.681,2.681,0,0,1-2.212-.815q-3.421-3.477-6.825-6.973a2.864,2.864,0,0,1-.818-2.014" transform="translate(-113.983 -141.925)" fill="#00e487"/>
    <path id="Path_86671" data-name="Path 86671" d="M58.513,25.07a.881.881,0,0,1-.749.907c-.845.189-1.689.38-2.537.551a4.9,4.9,0,0,0-4.153,4.116c-.173.83-.358,1.657-.543,2.484-.131.587-.43.865-.921.838-.522-.028-.764-.342-.873-.836-.236-1.079-.474-2.16-.768-3.224a4.271,4.271,0,0,0-3.18-3.154c-1.03-.279-2.074-.508-3.114-.749-.642-.149-.924-.413-.906-.92.021-.59.4-.8.929-.909,1.026-.217,2.049-.457,3.062-.728a4.284,4.284,0,0,0,3.217-3.186c.286-1.047.525-2.109.754-3.171.111-.515.351-.86.905-.862s.806.341.907.858c.16.813.36,1.619.527,2.431a4.911,4.911,0,0,0,4.183,4.151c.831.163,1.655.361,2.484.539a.889.889,0,0,1,.777.863m-5.044.1a16.165,16.165,0,0,1-2.318-1.659,15.257,15.257,0,0,1-1.594-2.28A6.063,6.063,0,0,1,45.586,25.1a6.2,6.2,0,0,1,4.061,4.047,6,6,0,0,1,3.822-3.975" transform="translate(-36.236 -14.424)" fill="#00e487"/>
    <path id="Path_86672" data-name="Path 86672" d="M48.326,134.612c.051-.828.085-1.658.164-2.484a1.505,1.505,0,0,1,.277-.711.791.791,0,0,1,1.028-.287.81.81,0,0,1,.55.924,22.662,22.662,0,0,0,.043,6.679,29.969,29.969,0,0,0,2.506,9.536,24.67,24.67,0,0,0,14.5,13.35,1.54,1.54,0,0,0,1-.016c.98-.373,1.937-.81,2.9-1.238.643-.288,1.138-.2,1.4.291.272.513.066,1.016-.608,1.321-1.057.478-2.131.92-3.2,1.371a2.6,2.6,0,0,1-1.993,0c-9.226-3.425-14.921-10.01-17.393-19.465a38.886,38.886,0,0,1-1.166-9.269" transform="translate(-42.954 -116.48)" fill="#00e487"/>
    <path id="Path_86673" data-name="Path 86673" d="M0,110.943c.146-1.915.285-3.83.443-5.744.054-.656.505-1.065,1.028-.989.552.08.826.527.747,1.207a42.712,42.712,0,0,0,1.74,18.872,31.252,31.252,0,0,0,2.853,6.166c.115.19.236.376.343.57a.92.92,0,0,1-.28,1.306.851.851,0,0,1-1.23-.366c-.763-1.369-1.564-2.725-2.209-4.149A38.1,38.1,0,0,1,.193,114.108c-.03-.535-.074-1.07-.09-1.605-.016-.517,0-1.035,0-1.553l-.1-.007" transform="translate(0 -92.618)" fill="#00e487"/>
    <path id="Path_86674" data-name="Path 86674" d="M369.738,129.763a36.332,36.332,0,0,1-1.987,12.012c-.234.688-.768.962-1.311.688-.441-.223-.551-.638-.393-1.248.489-1.89,1.042-3.768,1.42-5.681a29.535,29.535,0,0,0,.465-7.56,2.75,2.75,0,0,0-.442-1.139.991.991,0,0,1,.051-1.22.873.873,0,0,1,1.246-.014,2.759,2.759,0,0,1,.947,2.109c.019.684,0,1.368,0,2.052" transform="translate(-325.299 -111.414)" fill="#00e487"/>
    <path id="Path_86675" data-name="Path 86675" d="M212.011,55.433a7.693,7.693,0,0,1,1.366.554,56.3,56.3,0,0,0,7.46,3.966c.632.276.867.754.652,1.264s-.765.7-1.417.355q-3.719-1.944-7.411-3.94a1.5,1.5,0,0,0-1.236-.265.844.844,0,0,1-1.08-.612.884.884,0,0,1,.615-1.088,10.119,10.119,0,0,1,1.052-.234" transform="translate(-186.934 -49.271)" fill="#00e487"/>
    <path id="Path_86676" data-name="Path 86676" d="M333.341,110.921c-.014.756-.509,1.19-1.047,1.055a10.39,10.39,0,0,1-1.514-.513.873.873,0,0,1,.51-1.662,7.113,7.113,0,0,1,1.563.526c.251.125.392.47.488.594" transform="translate(-293.524 -97.573)" fill="#00e487"/>
    <path id="Path_86677" data-name="Path 86677" d="M71.338,369.258a3.243,3.243,0,0,1,.68.39,8.81,8.81,0,0,1,.859,1.01.856.856,0,0,1-.13,1.234.9.9,0,0,1-1.206-.079,5.435,5.435,0,0,1-.909-1.106,1.15,1.15,0,0,1,0-.915c.111-.234.458-.356.71-.534" transform="translate(-62.695 -328.213)" fill="#00e487"/>
  </g>
</svg>
