<svg xmlns="http://www.w3.org/2000/svg" xmlns:xlink="http://www.w3.org/1999/xlink" width="24.152" height="26.651" viewBox="0 0 24.152 26.651">
  <defs>
    <clipPath id="clip-path">
      <rect id="Rectangle_1606" data-name="Rectangle 1606" width="24.152" height="26.651" fill="#3c3c41"/>
    </clipPath>
  </defs>
  <g id="Group_4112" data-name="Group 4112" transform="translate(-213 -353.01)">
    <g id="Group_4111" data-name="Group 4111" transform="translate(213 353.01)">
      <g id="Group_3665" data-name="Group 3665" clip-path="url(#clip-path)">
        <path id="Path_86678" data-name="Path 86678" d="M51.033,26.651c-.035-.009-.071-.019-.106-.026a1.239,1.239,0,0,1-.99-1.211q0-12.089,0-24.177A1.24,1.24,0,0,1,50.968.018c.022,0,.044-.012.066-.018h15.3c.087.023.175.041.259.07a1.235,1.235,0,0,1,.837,1.174q0,9.836,0,19.673a.535.535,0,0,1-.155.392q-2.464,2.588-4.923,5.18a.647.647,0,0,1-.253.162ZM66.593,20.4V1.3a.419.419,0,0,0-.462-.465H51.224a.414.414,0,0,0-.454.452V25.366a.415.415,0,0,0,.454.451H61.6v-.1q0-2.047,0-4.095A1.217,1.217,0,0,1,62.814,20.4c1.228.009,2.457,0,3.685,0h.094m-.537.833H62.813a.362.362,0,0,0-.371.3.635.635,0,0,0-.012.131q0,1.707,0,3.413c0,.022,0,.043,0,.081l3.623-3.925" transform="translate(-46.605)" fill="#3c3c41"/>
        <path id="Path_86679" data-name="Path 86679" d="M327.053,41.842c-.036.181-.074.361-.109.542q-.435,2.286-.869,4.572L324.984,52.7l-.4,2.126a.144.144,0,0,1-.025.064v-.277c0-1.228,0-2.457,0-3.685a4.656,4.656,0,0,1,.089-.908q.468-2.432.927-4.865.321-1.69.642-3.38a.347.347,0,0,0-.281-.423q-.642-.134-1.285-.26c-.07-.014-.092-.037-.091-.111.005-.249,0-.5,0-.76l.267.053c.421.086.843.17,1.264.258a1.183,1.183,0,0,1,.953.973.389.389,0,0,0,.015.045Z" transform="translate(-302.901 -37.539)" fill="#3c3c41"/>
        <path id="Path_86680" data-name="Path 86680" d="M0,41.588c.008-.029.016-.057.023-.086a1.15,1.15,0,0,1,.9-.919c.508-.12,1.023-.212,1.535-.315l.039-.005c0,.02,0,.037,0,.055,0,.243,0,.486,0,.729,0,.049-.013.067-.062.077-.426.084-.852.172-1.278.258a.362.362,0,0,0-.32.293.4.4,0,0,0,0,.137q.364,1.925.73,3.85.46,2.419.919,4.838a.445.445,0,0,1,.006.083q0,2.137,0,4.275v.069l-.013,0c-.024-.121-.048-.243-.071-.364l-.842-4.429L.723,45.652.011,41.9A.111.111,0,0,0,0,41.88v-.291" transform="translate(0 -37.577)" fill="#3c3c41"/>
        <path id="Path_86681" data-name="Path 86681" d="M87.8,147.523H81.564a.417.417,0,0,1-.087-.826.486.486,0,0,1,.09-.006H94.031a.417.417,0,1,1,0,.833H87.8" transform="translate(-75.722 -136.904)" fill="#3c3c41"/>
        <path id="Path_86682" data-name="Path 86682" d="M87.81,171.657h6.225a.416.416,0,1,1,.027.833H81.578a.416.416,0,0,1-.424-.31.4.4,0,0,1,.205-.47.531.531,0,0,1,.226-.051q3.113,0,6.225,0" transform="translate(-75.727 -160.206)" fill="#3c3c41"/>
        <path id="Path_86683" data-name="Path 86683" d="M87.8,197.457H81.571a.415.415,0,0,1-.417-.31.4.4,0,0,1,.205-.47.515.515,0,0,1,.219-.05c.979,0,1.957,0,2.936,0h9.515a.416.416,0,0,1,.411.562.411.411,0,0,1-.384.27c-.252,0-.5,0-.756,0H87.8" transform="translate(-75.727 -183.507)" fill="#3c3c41"/>
        <path id="Path_86684" data-name="Path 86684" d="M87.8,222.425H81.571a.415.415,0,0,1-.417-.31.4.4,0,0,1,.205-.47.514.514,0,0,1,.219-.05c1.039,0,2.077,0,3.116,0h9.334a.416.416,0,0,1,.411.562.411.411,0,0,1-.384.27c-.266,0-.532,0-.8,0H87.8" transform="translate(-75.728 -206.81)" fill="#3c3c41"/>
        <path id="Path_86685" data-name="Path 86685" d="M83.019,300.248a1.874,1.874,0,1,1,1.874-1.87,1.874,1.874,0,0,1-1.874,1.87m1.041-1.877a1.04,1.04,0,1,0-1.034,1.043,1.045,1.045,0,0,0,1.034-1.043" transform="translate(-75.732 -276.72)" fill="#3c3c41"/>
        <path id="Path_86686" data-name="Path 86686" d="M241.314,52.728l.468-.672c.077-.11.15-.223.23-.33a.451.451,0,0,1,.46-.178.39.39,0,0,1,.326.295.514.514,0,0,1,.018.144q0,1.218,0,2.435a.418.418,0,1,1-.835.009c0-.363,0-.726,0-1.089v-.1c-.023.027-.035.039-.045.052l-.246.353a.46.46,0,0,1-.76,0,4.166,4.166,0,0,0-.251-.334v.069c0,.352,0,.7,0,1.055a.416.416,0,0,1-.628.371.4.4,0,0,1-.205-.355c0-.169,0-.338,0-.506q0-.975,0-1.95a.421.421,0,0,1,.287-.435.428.428,0,0,1,.494.187q.32.458.638.917c.014.02.029.04.048.065" transform="translate(-223.846 -48.1)" fill="#3c3c41"/>
        <path id="Path_86687" data-name="Path 86687" d="M171.008,53.962h-.944v.075c0,.148,0,.3,0,.444a.417.417,0,0,1-.414.431.412.412,0,0,1-.42-.424c0-.645-.006-1.291,0-1.936a.968.968,0,0,1,.727-.9,1.244,1.244,0,0,1,.347-.057,3.7,3.7,0,0,1,.7.033.983.983,0,0,1,.785.659.859.859,0,0,1,.046.279c0,.638,0,1.277,0,1.915a.417.417,0,1,1-.834.007c0-.148,0-.3,0-.444v-.079m-.01-.844c0-.008.008-.012.008-.016q0-.236,0-.471a.152.152,0,0,0-.125-.179.446.446,0,0,0-.135-.027c-.143,0-.287-.007-.429,0a.6.6,0,0,0-.19.056.114.114,0,0,0-.066.119c0,.155,0,.309,0,.464a.47.47,0,0,0,.006.053Z" transform="translate(-157.937 -48.15)" fill="#3c3c41"/>
        <path id="Path_86688" data-name="Path 86688" d="M84.984,247.4H81.556a.416.416,0,0,1-.086-.825.375.375,0,0,1,.076-.007h6.877a.415.415,0,0,1,.145.8.542.542,0,0,1-.177.027q-1.7,0-3.407,0" transform="translate(-75.721 -230.116)" fill="#3c3c41"/>
        <path id="Path_86689" data-name="Path 86689" d="M79.276,54.84c-.19,0-.379,0-.569,0a1.109,1.109,0,0,1-1.138-1.06,11.078,11.078,0,0,1,0-1.241,1.1,1.1,0,0,1,1.074-1.021c.43-.009.86-.005,1.29,0a.417.417,0,1,1-.007.833c-.4,0-.8,0-1.193,0a.3.3,0,0,0-.341.343q0,.486,0,.971a.3.3,0,0,0,.342.342c.4,0,.8,0,1.2,0a.416.416,0,0,1,.14.808.568.568,0,0,1-.17.025c-.21,0-.421,0-.631,0" transform="translate(-72.38 -48.077)" fill="#3c3c41"/>
        <path id="Path_86690" data-name="Path 86690" d="M129.98,54.029h1a.415.415,0,0,1,.425.426.41.41,0,0,1-.388.405c-.145.007-.291,0-.437,0h-.965a.42.42,0,0,1-.466-.462q0-1.211,0-2.422a.417.417,0,1,1,.834,0q0,.982,0,1.964Z" transform="translate(-120.53 -48.1)" fill="#3c3c41"/>
        <path id="Path_86691" data-name="Path 86691" d="M218.885,53.209q0,.61,0,1.221a.418.418,0,1,1-.834,0q0-1.228,0-2.455a.417.417,0,0,1,.348-.422.413.413,0,0,1,.461.272.528.528,0,0,1,.024.163c0,.407,0,.814,0,1.221" transform="translate(-203.504 -48.109)" fill="#3c3c41"/>
      </g>
    </g>
    <path id="Path_86870" data-name="Path 86870" d="M1290.516,6890.01v-4.337s.137-.966,1.009-.946,4,0,4,0Z" transform="translate(-1062 -6511)" fill="#3c3c41"/>
    <circle id="Ellipse_517" data-name="Ellipse 517" cx="1.5" cy="1.5" r="1.5" transform="translate(219 373)" fill="#3c3c41"/>
  </g>
</svg>
