<svg id="Group_3666" data-name="Group 3666" xmlns="http://www.w3.org/2000/svg" xmlns:xlink="http://www.w3.org/1999/xlink" width="52" height="57.379" viewBox="0 0 52 57.379">
  <defs>
    <clipPath id="clip-path">
      <rect id="Rectangle_1606" data-name="Rectangle 1606" width="52" height="57.379" fill="#3c3c41"/>
    </clipPath>
  </defs>
  <g id="Group_3665" data-name="Group 3665" clip-path="url(#clip-path)">
    <path id="Path_86678" data-name="Path 86678" d="M52.3,57.379c-.076-.019-.152-.04-.229-.056a2.668,2.668,0,0,1-2.132-2.607q0-26.027,0-52.054A2.67,2.67,0,0,1,52.157.038C52.2.029,52.251.013,52.3,0H85.231c.186.049.376.088.559.15a2.658,2.658,0,0,1,1.8,2.527q0,21.177,0,42.355a1.152,1.152,0,0,1-.334.845q-5.3,5.572-10.6,11.153a1.394,1.394,0,0,1-.545.349ZM85.8,43.931V2.8a.9.9,0,0,0-1-1H52.709a.892.892,0,0,0-.977.973V54.614a.892.892,0,0,0,.978.972H75.04v-.211q0-4.408,0-8.816a2.621,2.621,0,0,1,2.622-2.634c2.645.018,5.289.005,7.934.005h.2m-1.155,1.794H77.66a.779.779,0,0,0-.8.645,1.368,1.368,0,0,0-.027.281q0,3.674,0,7.349c0,.047.005.093.01.175l7.8-8.45" transform="translate(-42.764)" fill="#3c3c41"/>
    <path id="Path_86679" data-name="Path 86679" d="M329.937,43.709c-.078.389-.16.778-.234,1.168q-.937,4.922-1.871,9.844l-2.35,12.367-.87,4.577a.311.311,0,0,1-.055.137v-.6c0-2.644.008-5.289-.005-7.934a10.014,10.014,0,0,1,.191-1.955q1.008-5.235,2-10.474.691-3.638,1.381-7.277a.747.747,0,0,0-.606-.912q-1.381-.289-2.766-.56c-.15-.029-.2-.08-.2-.238.012-.537,0-1.074,0-1.637.2.039.389.075.576.113.907.184,1.815.367,2.721.555a2.547,2.547,0,0,1,2.051,2.094.824.824,0,0,0,.031.1Z" transform="translate(-277.937 -34.445)" fill="#3c3c41"/>
    <path id="Path_86680" data-name="Path 86680" d="M0,43.117c.016-.061.034-.123.049-.185a2.476,2.476,0,0,1,1.933-1.979c1.094-.258,2.2-.455,3.305-.679.024,0,.049-.006.083-.011,0,.043.01.081.01.119,0,.523,0,1.046,0,1.569,0,.1-.028.145-.134.166-.918.182-1.834.37-2.752.556a.78.78,0,0,0-.688.632.862.862,0,0,0,.006.3Q2.6,47.744,3.39,51.888,4.379,57.1,5.369,62.3a.958.958,0,0,1,.012.178q0,4.6,0,9.2v.149l-.028,0c-.051-.261-.1-.523-.152-.784Q4.3,66.286,3.39,61.518q-.917-4.826-1.834-9.653Q.79,47.831.024,43.8A.239.239,0,0,0,0,43.744v-.628" transform="translate(0 -34.48)" fill="#3c3c41"/>
    <path id="Path_86681" data-name="Path 86681" d="M95.478,148.483H82.061a.9.9,0,0,1-.187-1.779,1.046,1.046,0,0,1,.193-.013H108.9a.9.9,0,1,1-.006,1.793H95.478" transform="translate(-69.481 -125.621)" fill="#3c3c41"/>
    <path id="Path_86682" data-name="Path 86682" d="M95.5,171.657h13.4a.9.9,0,1,1,.059,1.792H82.083a.9.9,0,0,1-.913-.668.869.869,0,0,1,.442-1.012,1.143,1.143,0,0,1,.487-.109q6.7-.009,13.4,0" transform="translate(-69.486 -147.002)" fill="#3c3c41"/>
    <path id="Path_86683" data-name="Path 86683" d="M95.471,198.418h-13.4a.893.893,0,0,1-.9-.668.871.871,0,0,1,.442-1.012,1.109,1.109,0,0,1,.472-.108c2.107-.007,4.214,0,6.32,0h20.485a.9.9,0,0,1,.885,1.211.884.884,0,0,1-.826.581c-.543,0-1.086,0-1.629,0H95.471" transform="translate(-69.486 -168.383)" fill="#3c3c41"/>
    <path id="Path_86684" data-name="Path 86684" d="M95.471,223.386h-13.4a.893.893,0,0,1-.9-.668.87.87,0,0,1,.442-1.012,1.107,1.107,0,0,1,.472-.108c2.236-.007,4.472,0,6.709,0h20.1a.9.9,0,0,1,.885,1.211.884.884,0,0,1-.827.581c-.573,0-1.146,0-1.718,0H95.471" transform="translate(-69.486 -189.765)" fill="#3c3c41"/>
    <path id="Path_86685" data-name="Path 86685" d="M85.179,304.569a4.034,4.034,0,1,1,4.035-4.026,4.034,4.034,0,0,1-4.035,4.026m2.241-4.04a2.24,2.24,0,1,0-2.227,2.247,2.25,2.25,0,0,0,2.227-2.247" transform="translate(-69.49 -253.914)" fill="#3c3c41"/>
    <path id="Path_86686" data-name="Path 86686" d="M243.006,54.1l1.007-1.447c.165-.237.323-.479.5-.71a.971.971,0,0,1,.991-.384.839.839,0,0,1,.7.634,1.109,1.109,0,0,1,.039.309q0,2.622,0,5.243a.9.9,0,1,1-1.8.02c0-.782,0-1.564,0-2.345V55.2c-.05.058-.076.084-.1.113-.177.253-.352.507-.529.76a.99.99,0,0,1-1.636,0,8.963,8.963,0,0,0-.54-.719V55.5c0,.757,0,1.514,0,2.27a.9.9,0,0,1-1.352.8.854.854,0,0,1-.442-.765c0-.363,0-.727,0-1.09q0-2.1,0-4.2a.907.907,0,0,1,.617-.937.922.922,0,0,1,1.064.4q.689.985,1.374,1.974c.03.044.063.086.1.14" transform="translate(-205.398 -44.136)" fill="#3c3c41"/>
    <path id="Path_86687" data-name="Path 86687" d="M173.063,56.7H171.03v.162c0,.319,0,.637,0,.956a.9.9,0,0,1-.891.928.887.887,0,0,1-.905-.912c-.007-1.389-.013-2.779,0-4.168a2.084,2.084,0,0,1,1.566-1.944,2.678,2.678,0,0,1,.747-.122,7.966,7.966,0,0,1,1.516.07,2.117,2.117,0,0,1,1.69,1.419,1.85,1.85,0,0,1,.1.6c.008,1.374.005,2.749,0,4.123a.9.9,0,1,1-1.8.015c-.005-.319,0-.637,0-.956V56.7m-.022-1.817c.009-.018.017-.026.017-.035q0-.507,0-1.014a.328.328,0,0,0-.269-.386.961.961,0,0,0-.29-.057c-.308-.007-.617-.015-.924,0a1.289,1.289,0,0,0-.408.12.246.246,0,0,0-.143.255c.006.333,0,.666,0,1a1,1,0,0,0,.013.115Z" transform="translate(-144.92 -44.181)" fill="#3c3c41"/>
    <path id="Path_86688" data-name="Path 86688" d="M89.424,248.357H82.044a.9.9,0,0,1-.184-1.776.806.806,0,0,1,.163-.016q7.4,0,14.807,0a.894.894,0,0,1,.312,1.732,1.167,1.167,0,0,1-.38.058q-3.668,0-7.336,0" transform="translate(-69.48 -211.151)" fill="#3c3c41"/>
    <path id="Path_86689" data-name="Path 86689" d="M81.263,58.676c-.408,0-.817,0-1.225,0a2.388,2.388,0,0,1-2.45-2.281,23.852,23.852,0,0,1,.006-2.672,2.372,2.372,0,0,1,2.311-2.2c.926-.02,1.852-.011,2.778,0a.9.9,0,1,1-.014,1.793c-.856,0-1.713,0-2.569,0a.654.654,0,0,0-.733.738q0,1.046,0,2.091a.654.654,0,0,0,.736.736c.861,0,1.723,0,2.584,0a.9.9,0,0,1,.3,1.739,1.223,1.223,0,0,1-.366.054c-.453.006-.906,0-1.359,0" transform="translate(-66.415 -44.115)" fill="#3c3c41"/>
    <path id="Path_86690" data-name="Path 86690" d="M130.943,56.9c.733,0,1.44,0,2.147,0a.893.893,0,0,1,.915.918.882.882,0,0,1-.835.872c-.313.015-.627.006-.941.006h-2.077a.9.9,0,0,1-1-.994q0-2.607,0-5.215a.9.9,0,1,1,1.8-.01q0,2.114,0,4.229Z" transform="translate(-110.596 -44.136)" fill="#3c3c41"/>
    <path id="Path_86691" data-name="Path 86691" d="M219.847,55.126q0,1.314,0,2.628a.9.9,0,1,1-1.8,0q0-2.643,0-5.287a.9.9,0,0,1,.748-.91.889.889,0,0,1,.992.586,1.136,1.136,0,0,1,.052.351c0,.876,0,1.752,0,2.628" transform="translate(-186.732 -44.144)" fill="#3c3c41"/>
  </g>
</svg>
