<svg id="Group_3663" data-name="Group 3663" xmlns="http://www.w3.org/2000/svg" xmlns:xlink="http://www.w3.org/1999/xlink" width="57.597" height="61.643" viewBox="0 0 57.597 61.643">
  <defs>
    <clipPath id="clip-path">
      <rect id="Rectangle_1605" data-name="Rectangle 1605" width="57.597" height="61.643" fill="#00e487"/>
    </clipPath>
  </defs>
  <g id="Group_3662" data-name="Group 3662" clip-path="url(#clip-path)">
    <path id="Path_86667" data-name="Path 86667" d="M194.907,24.285c-.131,1.23-.245,2.461-.395,3.688a43.951,43.951,0,0,1-3.538,12.91,1.041,1.041,0,1,1-1.9-.815,41.869,41.869,0,0,0,3.207-11.09,50.021,50.021,0,0,0,.372-11.829c-.085-.936-.2-1.869-.3-2.8-.117-1.086-.286-1.287-1.325-1.474a56.971,56.971,0,0,1-13.807-4.359,58.576,58.576,0,0,1-10.079-5.945c-.916-.669-1.013-.635-1.97,0-1.92,1.275-3.851,2.536-5.814,3.744a1.561,1.561,0,0,1-1.239.108c-.769-.323-.7-1.3.075-1.791,1.389-.879,2.794-1.733,4.178-2.621.647-.415,1.257-.886,1.885-1.329a2.983,2.983,0,0,1,3.8,0,57.4,57.4,0,0,0,12.471,7.009,59.206,59.206,0,0,0,11.227,3.23,3.045,3.045,0,0,1,2.629,2.889c.148,1.4.274,2.8.415,4.207.021.208.073.413.111.619Z" transform="translate(-137.31 0.001)" fill="#00e487"/>
    <path id="Path_86668" data-name="Path 86668" d="M308.791,314.354a1.872,1.872,0,0,1-1.4.759c-.878.171-1.75.374-2.624.567a5.606,5.606,0,0,0-4.575,4.686c-.208.98-.431,1.958-.635,2.939a1,1,0,0,1-1.043.925c-.6-.006-.9-.369-1.027-.944-.271-1.227-.547-2.455-.87-3.669a4.969,4.969,0,0,0-3.746-3.742c-1.194-.316-2.4-.595-3.607-.856-.6-.129-.995-.406-.995-1.049s.4-.92.994-1.049c1.229-.265,2.456-.543,3.668-.874a4.944,4.944,0,0,0,3.669-3.663c.332-1.212.606-2.441.872-3.669.128-.594.4-1,1.042-1.005s.937.386,1.056.987c.19.962.419,1.916.622,2.876a5.666,5.666,0,0,0,4.825,4.744,25.231,25.231,0,0,1,2.5.555,6.689,6.689,0,0,1,1.282.713Zm-5.548-.391a7.11,7.11,0,0,1-4.727-4.7,7.125,7.125,0,0,1-4.681,4.705,7.169,7.169,0,0,1,4.7,4.692,7.1,7.1,0,0,1,4.709-4.7" transform="translate(-251.194 -264.65)" fill="#00e487"/>
    <path id="Path_86669" data-name="Path 86669" d="M116.148,412.245c-1.538-.558-3.1-1.06-4.609-1.684a36.891,36.891,0,0,1-10.13-6.3,1.035,1.035,0,0,1-.365-1.356.954.954,0,0,1,1.188-.514,1.971,1.971,0,0,1,.691.443,35.7,35.7,0,0,0,13.237,7.182,2.289,2.289,0,0,0,1.232,0,35.886,35.886,0,0,0,10.03-4.739c.124-.084.247-.168.373-.249a1.073,1.073,0,0,1,1.584.164,1.01,1.01,0,0,1-.4,1.526c-1.908,1.129-3.787,2.328-5.779,3.288-1.758.847-3.655,1.407-5.489,2.1a2.922,2.922,0,0,0-.275.136Z" transform="translate(-87.939 -350.602)" fill="#00e487"/>
    <path id="Path_86671" data-name="Path 86671" d="M61.3,26.458a1.019,1.019,0,0,1-.866,1.049c-.977.219-1.954.44-2.936.637a5.673,5.673,0,0,0-4.8,4.762c-.2.96-.414,1.917-.628,2.874-.152.679-.5,1-1.066.97-.6-.032-.884-.4-1.01-.968-.273-1.249-.548-2.5-.889-3.73A4.941,4.941,0,0,0,45.42,28.4c-1.192-.322-2.4-.588-3.6-.866-.743-.172-1.07-.478-1.049-1.065.025-.683.466-.923,1.075-1.052,1.187-.251,2.37-.529,3.543-.842a4.956,4.956,0,0,0,3.721-3.686c.331-1.212.607-2.44.873-3.668.129-.6.406-1,1.047-1s.932.395,1.05.993c.185.941.417,1.873.609,2.813a5.682,5.682,0,0,0,4.839,4.8c.961.189,1.915.417,2.873.623a1.029,1.029,0,0,1,.9,1m-5.836.121a18.7,18.7,0,0,1-2.681-1.919,17.652,17.652,0,0,1-1.844-2.638A7.015,7.015,0,0,1,46.342,26.5a7.175,7.175,0,0,1,4.7,4.683,6.943,6.943,0,0,1,4.422-4.6" transform="translate(-35.525 -14.141)" fill="#00e487"/>
    <path id="Path_86672" data-name="Path 86672" d="M48.326,135.171c.059-.958.1-1.919.19-2.874a1.741,1.741,0,0,1,.321-.822.916.916,0,0,1,1.189-.332.937.937,0,0,1,.637,1.069,26.219,26.219,0,0,0,.05,7.728,34.673,34.673,0,0,0,2.9,11.033A28.543,28.543,0,0,0,70.39,166.418a1.782,1.782,0,0,0,1.152-.019c1.134-.432,2.241-.937,3.351-1.433.744-.333,1.317-.228,1.616.337.314.593.076,1.176-.7,1.528-1.223.553-2.466,1.064-3.7,1.586a3.009,3.009,0,0,1-2.306,0c-10.674-3.963-17.263-11.581-20.123-22.521a44.991,44.991,0,0,1-1.349-10.725" transform="translate(-42.111 -114.193)" fill="#00e487"/>
    <path id="Path_86673" data-name="Path 86673" d="M0,112c.169-2.215.33-4.431.513-6.645.063-.759.585-1.232,1.189-1.144.638.093.956.61.864,1.4A49.417,49.417,0,0,0,4.58,127.443a36.159,36.159,0,0,0,3.3,7.134c.133.22.273.435.4.659a1.064,1.064,0,0,1-.324,1.512.985.985,0,0,1-1.423-.424c-.883-1.583-1.809-3.152-2.556-4.8a44.079,44.079,0,0,1-3.751-15.86c-.035-.619-.086-1.238-.1-1.857-.018-.6,0-1.2,0-1.8L0,112" transform="translate(0 -90.8)" fill="#00e487"/>
    <path id="Path_86674" data-name="Path 86674" d="M370.328,130.456a42.036,42.036,0,0,1-2.3,13.9c-.271.8-.889,1.113-1.516.8-.51-.258-.638-.738-.455-1.443.566-2.187,1.205-4.36,1.643-6.572a34.17,34.17,0,0,0,.539-8.746,3.181,3.181,0,0,0-.512-1.318,1.147,1.147,0,0,1,.059-1.412,1.01,1.01,0,0,1,1.441-.016,3.192,3.192,0,0,1,1.1,2.44c.022.791,0,1.583,0,2.374" transform="translate(-318.912 -109.227)" fill="#00e487"/>
    <path id="Path_86675" data-name="Path 86675" d="M212.278,55.433a8.9,8.9,0,0,1,1.581.641,65.137,65.137,0,0,0,8.631,4.588c.731.319,1,.872.754,1.462-.256.606-.885.805-1.64.411q-4.3-2.249-8.575-4.558a1.741,1.741,0,0,0-1.43-.306.976.976,0,0,1-1.25-.708,1.022,1.022,0,0,1,.712-1.259,11.708,11.708,0,0,1,1.217-.271" transform="translate(-183.264 -48.304)" fill="#00e487"/>
    <path id="Path_86676" data-name="Path 86676" d="M333.829,111.1c-.016.874-.589,1.377-1.211,1.22a12.024,12.024,0,0,1-1.752-.593,1.01,1.01,0,0,1,.59-1.923,8.229,8.229,0,0,1,1.809.609c.29.145.453.544.565.687" transform="translate(-287.762 -95.657)" fill="#00e487"/>
    <path id="Path_86677" data-name="Path 86677" d="M71.464,369.258a3.753,3.753,0,0,1,.787.451,10.2,10.2,0,0,1,.994,1.168.991.991,0,0,1-.15,1.428,1.042,1.042,0,0,1-1.4-.091,6.289,6.289,0,0,1-1.052-1.28,1.331,1.331,0,0,1-.005-1.058c.128-.271.53-.412.822-.618" transform="translate(-61.464 -321.769)" fill="#00e487"/>
  </g>
</svg>
