<svg xmlns="http://www.w3.org/2000/svg" width="33.599" height="43.603" viewBox="0 0 33.599 43.603">
  <g id="Group_4603" data-name="Group 4603" transform="translate(-197.531 -610.5)">
    <path id="Subtraction_25" data-name="Subtraction 25" d="M4113.02-5376.035h0a1.046,1.046,0,0,0-.049-.447,1.06,1.06,0,0,0-.849-.713l-4.585-.7-2.06-4.389a1.073,1.073,0,0,0-.964-.613,1.069,1.069,0,0,0-.963.613l-2.06,4.389-4.585.7a1.056,1.056,0,0,0-.849.714,1.046,1.046,0,0,0-.052.417,45.627,45.627,0,0,1-5.341-.451,3.685,3.685,0,0,1-1.812-1.517l0-.007c-.051-.079-.1-.152-.15-.226a8.723,8.723,0,0,1-.208-6.284,10.819,10.819,0,0,1,3.367-5.09,10.721,10.721,0,0,1,5.931-2.456c.2,2.416,3.515,3.515,6.512,3.515a10.222,10.222,0,0,0,4.343-.874,3.379,3.379,0,0,0,2.161-2.63,10.457,10.457,0,0,1,7.409,3.974,10.564,10.564,0,0,1,1.946,3.75,8.686,8.686,0,0,1-.31,6.169,3.623,3.623,0,0,1-2.261,1.8c-.144.041-.27.069-.393.1l-.016,0c-.115.026-.245.055-.387.095l-.595.079h-.055c-.95.027-2.028.055-3.119.079Zm-8.753-14.851c-3.866,0-6.806-4.91-7.658-8.4a9.077,9.077,0,0,1,.961-7.126,7.921,7.921,0,0,1,5.359-3.451,7.855,7.855,0,0,1,1.473-.141,7.684,7.684,0,0,1,5.489,2.338,8.222,8.222,0,0,1,2.386,5.83,13.527,13.527,0,0,1-2.131,6.769,8.723,8.723,0,0,1-4.64,4.012A4.823,4.823,0,0,1,4104.267-5390.885Z" transform="translate(-3890 6021)" fill="#00e487" stroke="rgba(0,0,0,0)" stroke-width="1"/>
    <path id="star-svgrepo-com" d="M12.941,4.462a.8.8,0,0,0-.647-.5L8.8,3.478,7.228.426a.846.846,0,0,0-1.469,0L4.189,3.478l-3.5.487a.8.8,0,0,0-.646.5.694.694,0,0,0,.189.752L2.788,7.6l-.6,3.38a.715.715,0,0,0,.334.725.877.877,0,0,0,.86.043l3.116-1.573L9.61,11.75a.878.878,0,0,0,.86-.043.714.714,0,0,0,.334-.725L10.2,7.6l2.553-2.389A.7.7,0,0,0,12.941,4.462Z" transform="translate(208.019 642.261)" fill="#1ecbd0"/>
  </g>
</svg>
