<svg id="Group_3664" data-name="Group 3664" xmlns="http://www.w3.org/2000/svg" width="53.143" height="44.295" viewBox="0 0 53.143 44.295">
  <path id="Path_86538" data-name="Path 86538" d="M696.022,286.818a3.151,3.151,0,0,1,0-6.219v-.619q0-5.369,0-10.737a2.63,2.63,0,0,1,2.8-2.8q22,0,44.007,0a2.627,2.627,0,0,1,2.79,2.814q0,16.217,0,32.433a2.637,2.637,0,0,1-2.83,2.831q-14,0-28.009-.009a.841.841,0,0,0-.855.492,11.487,11.487,0,0,1-21.23-3.615,11.343,11.343,0,0,1,2.979-10.153,1.368,1.368,0,0,0,.33-.809C696.042,289.228,696.022,288.03,696.022,286.818Zm18.99,15.934h27.5c1.079,0,1.344-.262,1.344-1.332q0-15.94,0-31.88c0-1.071-.264-1.332-1.342-1.333H699c-.875,0-1.211.307-1.212,1.127q-.006,5.59,0,11.18a1.857,1.857,0,0,0,.115.447,1.666,1.666,0,0,0,.454-.2c1.235-1.081,2.452-2.185,3.695-3.257a.8.8,0,0,0,.293-.976,3.043,3.043,0,0,1,2.213-3.8,3.079,3.079,0,0,1,3.761,2.228,3.248,3.248,0,0,1-.388,2.5l3.561,2.809a3.242,3.242,0,0,1,3.272-.192.669.669,0,0,0,.556-.11c1.477-1.194,2.932-2.416,4.41-3.611a.687.687,0,0,0,.282-.825,3.074,3.074,0,0,1,3.693-3.688,2.959,2.959,0,0,1,2.347,2.439,2.9,2.9,0,0,1-1.118,2.994,2.932,2.932,0,0,1-3.32.327.513.513,0,0,0-.674.052q-2.2,1.852-4.437,3.664a.6.6,0,0,0-.23.74,3.052,3.052,0,0,1-1.2,3.312,3.114,3.114,0,0,1-3.533.023,3.051,3.051,0,0,1-1.251-3.3.569.569,0,0,0-.233-.693c-1.1-.844-2.173-1.712-3.264-2.562-.119-.092-.314-.207-.425-.17a3.337,3.337,0,0,1-2.657-.255c-1.406,1.25-2.791,2.468-4.152,3.712a.71.71,0,0,0-.143.6,3.128,3.128,0,0,1-1.321,3.619c-.123.082-.289.223-.293.34-.024.911-.013,1.823-.013,2.762,4.614-2.514,9.116-2.522,13.259.7S716.266,297.709,715.012,302.752Zm-19.092,1.818a9.677,9.677,0,0,0,10.944,3.935c3.734-1.156,6.965-5.152,6.741-8.379a1.3,1.3,0,0,0-.208-.033q-4.454,0-8.907,0a.925.925,0,0,0-.42.1C701.359,301.642,698.654,303.1,695.919,304.57Zm-.9-1.573c.2-.1.344-.164.486-.24,2.382-1.283,4.759-2.576,7.151-3.841a.736.736,0,0,0,.456-.765c-.016-2.673-.008-5.346-.008-8.02v-.613A9.753,9.753,0,0,0,695.024,303Zm9.883-4.719h8.723a9.558,9.558,0,0,0-8.723-8.7Zm19.454-23.45a1.325,1.325,0,1,0-1.33,1.347A1.372,1.372,0,0,0,724.361,274.829Zm-19.064-.417a1.326,1.326,0,1,0,1.346,1.276A1.366,1.366,0,0,0,705.3,274.412Zm9.319,8.436a1.325,1.325,0,1,0-1.322,1.3A1.375,1.375,0,0,0,714.616,282.848Zm-16.828.85a1.325,1.325,0,1,0-1.287,1.336A1.369,1.369,0,0,0,697.788,283.7Z" transform="translate(-692.479 -266.44)" fill="#00e487"/>
  <path id="Path_86539" data-name="Path 86539" d="M886.34,396.162h.89v-.615q0-3.155,0-6.309a1.752,1.752,0,0,1,1.931-1.909c.535,0,1.07-.007,1.605,0a1.733,1.733,0,0,1,1.772,1.792c.007,2.324,0,4.648,0,7.063.54,0,1.066,0,1.592,0,.7,0,1.079.334,1.064.909-.014.549-.387.857-1.061.857q-9.659,0-19.318,0a2.609,2.609,0,0,1-2.642-2.625q-.011-7.029,0-14.057c0-.654.337-1.029.893-1.023s.871.381.872,1.045q0,6.863,0,13.725c0,.744.193.994.889,1.13v-.6c0-2.933.043-5.868-.021-8.8a1.9,1.9,0,0,1,2.121-2.081c.457.046.922,0,1.383.008a1.742,1.742,0,0,1,1.825,1.85q.006,4.511,0,9.021v.617h.89c0-.2,0-.392,0-.587q0-5.783,0-11.567a1.773,1.773,0,0,1,2.015-1.992c.5,0,1,0,1.495,0a1.74,1.74,0,0,1,1.8,1.821q.007,5.839,0,11.678Zm-1.807,0V383.827h-1.707V396.16Zm-6.2,0v-9.676h-1.706v9.676Zm10.7-7.039v7.019h1.708v-7.019Z" transform="translate(-845.599 -363.416)" fill="#00e487"/>
  <path id="Path_86540" data-name="Path 86540" d="M960.947,302.373c1.255,0,2.509,0,3.764,0,.7,0,1.084.324,1.077.9-.008.551-.382.869-1.048.869q-3.82,0-7.639,0c-.667,0-1.04-.317-1.049-.868-.009-.572.374-.9,1.076-.9C958.4,302.371,959.673,302.373,960.947,302.373Z" transform="translate(-917.076 -297.059)" fill="#00e487"/>
  <path id="Path_86541" data-name="Path 86541" d="M960.919,328.1q-1.882,0-3.764,0c-.721,0-1.1-.3-1.1-.869s.374-.9,1.076-.9q3.792,0,7.584,0c.7,0,1.084.324,1.077.9s-.383.869-1.1.87Q962.8,328.1,960.919,328.1Z" transform="translate(-917.076 -317.473)" fill="#00e487"/>
  <path id="Path_86542" data-name="Path 86542" d="M960.881,352.05c-1.273,0-2.547,0-3.82,0-.65,0-1.024-.346-1.011-.906.012-.532.381-.857,1-.858q3.875-.006,7.75,0a.886.886,0,1,1,.008,1.763C963.5,352.055,962.191,352.05,960.881,352.05Z" transform="translate(-917.074 -337.883)" fill="#00e487"/>
  <path id="Path_86543" data-name="Path 86543" d="M938.979,304.148a.883.883,0,1,1,.865-.872A.867.867,0,0,1,938.979,304.148Z" transform="translate(-901.762 -297.068)" fill="#00e487"/>
  <path id="Path_86544" data-name="Path 86544" d="M938.075,327.179a.883.883,0,1,1,.867.926A.864.864,0,0,1,938.075,327.179Z" transform="translate(-901.757 -317.483)" fill="#00e487"/>
  <path id="Path_86545" data-name="Path 86545" d="M938.979,350.3a.883.883,0,1,1-.9.833A.865.865,0,0,1,938.979,350.3Z" transform="translate(-901.757 -337.896)" fill="#00e487"/>
</svg>
