<svg xmlns="http://www.w3.org/2000/svg" width="39.357" height="49.271" viewBox="0 0 39.357 49.271">
  <g id="Group_4486" data-name="Group 4486" transform="translate(-196.75 -748.75)">
    <g id="Group_3560" data-name="Group 3560" transform="translate(226.574 792.323)">
      <g id="Group_3559" data-name="Group 3559">
        <path id="Path_86550" data-name="Path 86550" d="M377.387,454.809h-6.226a.778.778,0,0,0,0,1.556h6.226a.778.778,0,1,0,0-1.556Z" transform="translate(-370.383 -454.809)" fill="#00e487" stroke="#00e487" stroke-width="0.5"/>
      </g>
    </g>
    <g id="Group_3562" data-name="Group 3562" transform="translate(197 792.323)">
      <g id="Group_3561" data-name="Group 3561">
        <path id="Path_86551" data-name="Path 86551" d="M87.154,454.809H60.693a.778.778,0,0,0,0,1.556H87.154a.778.778,0,1,0,0-1.556Z" transform="translate(-59.915 -454.809)" fill="#00e487" stroke="#00e487" stroke-width="0.5"/>
      </g>
    </g>
    <g id="Group_3564" data-name="Group 3564" transform="translate(197 796.215)">
      <g id="Group_3563" data-name="Group 3563">
        <path id="Path_86552" data-name="Path 86552" d="M78.593,495.66h-17.9a.778.778,0,0,0,0,1.557h17.9a.778.778,0,0,0,0-1.557Z" transform="translate(-59.915 -495.66)" fill="#00e487" stroke="#00e487" stroke-width="0.5"/>
      </g>
    </g>
    <g id="Group_3558" data-name="Group 3558" transform="translate(197 749)">
      <g id="Group_3557" data-name="Group 3557">
        <path id="Path_86549" data-name="Path 86549" d="M97.963,0H60.725a.794.794,0,0,0-.81.778V40.21a.794.794,0,0,0,.81.778H97.963a.794.794,0,0,0,.81-.778V.778A.794.794,0,0,0,97.963,0Zm-.81,39.432H61.534V1.556H97.153V39.432Z" transform="translate(-59.915 0)" fill="#00e487" stroke="#00e487" stroke-width="0.5"/>
      </g>
    </g>
    <g id="Group_4445" data-name="Group 4445" transform="translate(0 0.923)">
      <g id="Group_3560-2" data-name="Group 3560" transform="translate(204.453 781.323)">
        <g id="Group_3559-2" data-name="Group 3559">
          <path id="Path_86550-2" data-name="Path 86550" d="M377.387,454.809h-6.226a.778.778,0,0,0,0,1.556h6.226a.778.778,0,1,0,0-1.556Z" transform="translate(-370.383 -454.809)" fill="#00e487"/>
        </g>
      </g>
      <g id="Group_4435" data-name="Group 4435" transform="translate(225.734 761.323)">
        <g id="Group_3559-3" data-name="Group 3559">
          <path id="Path_86550-3" data-name="Path 86550" d="M375.537,454.809h-4.581c-.316,0-.573.348-.573.778s.256.778.573.778h4.581c.316,0,.573-.348.573-.778S375.853,454.809,375.537,454.809Z" transform="translate(-370.383 -454.809)" fill="#00e487"/>
        </g>
      </g>
      <g id="Group_4444" data-name="Group 4444" transform="translate(225.734 773.323)">
        <g id="Group_3559-4" data-name="Group 3559">
          <path id="Path_86550-4" data-name="Path 86550" d="M375.537,454.809h-4.581c-.316,0-.573.348-.573.778s.256.778.573.778h4.581c.316,0,.573-.348.573-.778S375.853,454.809,375.537,454.809Z" transform="translate(-370.383 -454.809)" fill="#00e487"/>
        </g>
      </g>
      <g id="Group_4436" data-name="Group 4436" transform="translate(225.734 765.323)">
        <g id="Group_3559-5" data-name="Group 3559">
          <path id="Path_86550-5" data-name="Path 86550" d="M375.537,454.809h-4.581c-.316,0-.573.348-.573.778s.256.778.573.778h4.581c.316,0,.573-.348.573-.778S375.853,454.809,375.537,454.809Z" transform="translate(-370.383 -454.809)" fill="#00e487"/>
        </g>
      </g>
      <g id="Group_3562-2" data-name="Group 3562" transform="translate(204.515 757.323)">
        <g id="Group_3561-2" data-name="Group 3561">
          <path id="Path_86551-2" data-name="Path 86551" d="M83.3,454.809H60.583a.787.787,0,0,0,0,1.556H83.3a.787.787,0,0,0,0-1.556Z" transform="translate(-59.915 -454.809)" fill="#00e487"/>
        </g>
      </g>
      <g id="Group_4438" data-name="Group 4438" transform="translate(204.515 769.323)">
        <g id="Group_3561-3" data-name="Group 3561">
          <path id="Path_86551-3" data-name="Path 86551" d="M86.111,454.809H60.663a.779.779,0,0,0,0,1.556H86.111a.779.779,0,0,0,0-1.556Z" transform="translate(-59.915 -454.809)" fill="#00e487"/>
        </g>
      </g>
      <g id="Group_4434" data-name="Group 4434" transform="translate(204.515 761.323)">
        <g id="Group_3561-4" data-name="Group 3561">
          <path id="Path_86551-4" data-name="Path 86551" d="M80.085,454.809H60.491c-.318,0-.576.348-.576.778s.258.778.576.778H80.085c.318,0,.576-.348.576-.778S80.4,454.809,80.085,454.809Z" transform="translate(-59.915 -454.809)" fill="#00e487"/>
        </g>
      </g>
      <g id="Group_4443" data-name="Group 4443" transform="translate(204.515 773.323)">
        <g id="Group_3561-5" data-name="Group 3561">
          <path id="Path_86551-5" data-name="Path 86551" d="M80.085,454.809H60.491c-.318,0-.576.348-.576.778s.258.778.576.778H80.085c.318,0,.576-.348.576-.778S80.4,454.809,80.085,454.809Z" transform="translate(-59.915 -454.809)" fill="#00e487"/>
        </g>
      </g>
      <g id="Group_4439" data-name="Group 4439" transform="translate(204.515 753.323)">
        <g id="Group_3561-6" data-name="Group 3561">
          <path id="Path_86551-6" data-name="Path 86551" d="M80.085,454.809H60.491c-.318,0-.576.348-.576.778s.258.778.576.778H80.085c.318,0,.576-.348.576-.778S80.4,454.809,80.085,454.809Z" transform="translate(-59.915 -454.809)" fill="#00e487"/>
        </g>
      </g>
      <g id="Group_4437" data-name="Group 4437" transform="translate(204.515 765.323)">
        <g id="Group_3561-7" data-name="Group 3561">
          <path id="Path_86551-7" data-name="Path 86551" d="M80.085,454.809H60.491c-.318,0-.576.348-.576.778s.258.778.576.778H80.085c.318,0,.576-.348.576-.778S80.4,454.809,80.085,454.809Z" transform="translate(-59.915 -454.809)" fill="#00e487"/>
        </g>
      </g>
      <g id="Group_4442" data-name="Group 4442" transform="translate(204.515 777.323)">
        <g id="Group_3561-8" data-name="Group 3561">
          <path id="Path_86551-8" data-name="Path 86551" d="M80.085,454.809H60.491c-.318,0-.576.348-.576.778s.258.778.576.778H80.085c.318,0,.576-.348.576-.778S80.4,454.809,80.085,454.809Z" transform="translate(-59.915 -454.809)" fill="#00e487"/>
        </g>
      </g>
      <circle id="Ellipse_519" data-name="Ellipse 519" cx="1.025" cy="1.025" r="1.025" transform="translate(201 773.077)" fill="#01e486"/>
      <circle id="Ellipse_526" data-name="Ellipse 526" cx="1.025" cy="1.025" r="1.025" transform="translate(201 781.077)" fill="#01e486"/>
      <circle id="Ellipse_527" data-name="Ellipse 527" cx="1.025" cy="1.025" r="1.025" transform="translate(201 777.077)" fill="#01e486"/>
      <circle id="Ellipse_521" data-name="Ellipse 521" cx="1.025" cy="1.025" r="1.025" transform="translate(201 769.077)" fill="#01e486"/>
      <circle id="Ellipse_522" data-name="Ellipse 522" cx="1.025" cy="1.025" r="1.025" transform="translate(201 765.077)" fill="#01e486"/>
      <circle id="Ellipse_523" data-name="Ellipse 523" cx="1.025" cy="1.025" r="1.025" transform="translate(201 761.077)" fill="#01e486"/>
      <circle id="Ellipse_524" data-name="Ellipse 524" cx="1.025" cy="1.025" r="1.025" transform="translate(201 757.077)" fill="#01e486"/>
      <circle id="Ellipse_525" data-name="Ellipse 525" cx="1.025" cy="1.025" r="1.025" transform="translate(201 753.077)" fill="#01e486"/>
    </g>
  </g>
</svg>
