<svg xmlns="http://www.w3.org/2000/svg" width="145.198" height="35.048" viewBox="0 0 145.198 35.048">
  <g id="Group_4592" data-name="Group 4592" transform="translate(3791 -5819.857)">
    <path id="Path_86984" data-name="Path 86984" d="M415.562,188.515V158.473h6.006v24.195h8.111l-1.384,5.847Z" transform="translate(-4135.724 5661.481)" fill="#3d2171"/>
    <rect id="Rectangle_1964" data-name="Rectangle 1964" width="6.016" height="30.042" transform="translate(-3703.377 5819.954)" fill="#3d2171"/>
    <path id="Path_86985" data-name="Path 86985" d="M646.328,175.81v12.5h-6V158.268h6v11.814l8.261-11.773h7.545l-10.851,14.434,10.891,15.567h-7.664Z" transform="translate(-4307.976 5661.638)" fill="#3d2171"/>
    <path id="Path_86986" data-name="Path 86986" d="M112.349,188.1V158.059H125.94v5.967h-7.378v5.848h7.378V175.6h-7.378v6.493h7.457V188.1Z" transform="translate(-3903.349 5661.799)" fill="#fff"/>
    <path id="Path_86987" data-name="Path 86987" d="M199.466,165.16a9.455,9.455,0,0,0-14.135,8.089,9.52,9.52,0,0,0,9.6,9.446,10.971,10.971,0,0,0,4.767-1.318V187.5a14.854,14.854,0,0,1-4.884.852c-8.356.077-15.554-7.121-15.36-15.176a15.363,15.363,0,0,1,15.137-14.865,31.91,31.91,0,0,1,4.873.618Z" transform="translate(-3954.776 5661.609)" fill="#fff"/>
    <path id="Path_86988" data-name="Path 86988" d="M289.929,158.475a15,15,0,0,1,14.982,14.632,15.121,15.121,0,1,1-14.982-14.632m-.038,5.674a9.344,9.344,0,1,0,9.346,9.152,9.312,9.312,0,0,0-9.346-9.152" transform="translate(-4027.752 5661.48)" fill="#fff"/>
    <path id="Path_86989" data-name="Path 86989" d="M415.562,188.515V158.473h6.006v24.195h8.111l-1.384,5.847Z" transform="translate(-4135.724 5661.481)" fill="#3d2171"/>
    <rect id="Rectangle_1965" data-name="Rectangle 1965" width="6.016" height="30.042" transform="translate(-3703.377 5819.954)" fill="#3d2171"/>
    <path id="Path_86990" data-name="Path 86990" d="M646.328,175.81v12.5h-6V158.268h6v11.814l8.261-11.773h7.545l-10.851,14.434,10.891,15.567h-7.664Z" transform="translate(-4307.976 5661.638)" fill="#3d2171"/>
    <path id="Path_86991" data-name="Path 86991" d="M548.943,168.281V188.31h-8.66a12.71,12.71,0,0,1,1.916-3.852l.063-.092a12.047,12.047,0,0,0,2.521-7.127,8.322,8.322,0,0,0-8.02-8.578h0a8.321,8.321,0,0,0-8.02,8.578,12.05,12.05,0,0,0,2.52,7.127l.063.092a12.7,12.7,0,0,1,1.916,3.852h-8.66V158.268H538.93a10.011,10.011,0,0,1,10.013,10.013m-8.411,20.987a5.689,5.689,0,0,1-1.757.86,6.6,6.6,0,0,1-1.836.266,6.342,6.342,0,0,1-1.826-.255,5.5,5.5,0,0,1-1.758-.851,40.816,40.816,0,0,0,7.176-.019m-.02,1.78c.018.031-.013.068-.075.157a6.354,6.354,0,0,1-2.094,1.945,1.409,1.409,0,0,1-.227.068,6.352,6.352,0,0,1-1.1.048h-.154a6.433,6.433,0,0,1-1.1-.048,1.05,1.05,0,0,1-.218-.068,6.159,6.159,0,0,1-2.093-1.945c-.071-.089-.094-.126-.077-.157a9.5,9.5,0,0,0,7.137,0" transform="translate(-4219.273 5661.639)" fill="#3d2171"/>
  </g>
</svg>
