<svg xmlns="http://www.w3.org/2000/svg" width="21.485" height="20.463" viewBox="0 0 21.485 20.463">
  <g id="feedback-svgrepo-com" transform="translate(-1 -1)">
    <path id="Path_86848" data-name="Path 86848" d="M15.785,1a2.877,2.877,0,0,1,2.957,2.79.987.987,0,0,1-1.971,0,.959.959,0,0,0-.986-.93H3.957a.959.959,0,0,0-.986.93V18.673a.959.959,0,0,0,.986.93H15.785a.959.959,0,0,0,.986-.93v-.93a.987.987,0,0,1,1.971,0v.93a2.877,2.877,0,0,1-2.957,2.79H3.957A2.877,2.877,0,0,1,1,18.673V3.79A2.877,2.877,0,0,1,3.957,1Z" transform="translate(0)" fill="#3c3c41"/>
    <path id="Path_86849" data-name="Path 86849" d="M20.008,8.045a.714.714,0,0,0-1.01,0L11.746,15.3a.929.929,0,0,0-.26.5l-.153.918.918-.153a.93.93,0,0,0,.5-.26l7.252-7.252A.714.714,0,0,0,20.008,8.045ZM17.682,6.73a2.574,2.574,0,1,1,3.641,3.641l-7.252,7.252a2.791,2.791,0,0,1-1.514.779l-.918.153A1.86,1.86,0,0,1,9.5,16.414l.153-.918a2.791,2.791,0,0,1,.779-1.514Z" transform="translate(0.408 -0.348)" fill="#3c3c41" fill-rule="evenodd"/>
    <path id="Path_86850" data-name="Path 86850" d="M5,6.93A.93.93,0,0,1,5.93,6h7.441a.93.93,0,1,1,0,1.86H5.93A.93.93,0,0,1,5,6.93Z" transform="translate(0.053 -0.349)" fill="#3c3c41"/>
    <path id="Path_86851" data-name="Path 86851" d="M5,10.93A.93.93,0,0,1,5.93,10H9.651a.93.93,0,0,1,0,1.86H5.93A.93.93,0,0,1,5,10.93Z" transform="translate(-0.03 -0.629)" fill="#3c3c41"/>
    <path id="Path_86852" data-name="Path 86852" d="M5,14.93A.93.93,0,0,1,5.93,14h.93a.93.93,0,0,1,0,1.86H5.93A.93.93,0,0,1,5,14.93Z" transform="translate(-0.069 -0.908)" fill="#3c3c41"/>
  </g>
</svg>
