<svg xmlns="http://www.w3.org/2000/svg" width="275.161" height="287.671" viewBox="0 0 275.161 287.671">
  <g id="Group_4384" data-name="Group 4384" transform="translate(-68.468 -311.527)">
    <path id="Union_1" data-name="Union 1" d="M85,231.649a7.908,7.908,0,1,1,7.908,7.908A7.907,7.907,0,0,1,85,231.649Zm3.29-25.387-7.873-10.62A49.059,49.059,0,0,0,58.859,179.35a92.625,92.625,0,0,1-43.5-137.4A94.285,94.285,0,0,1,39.841,16.781,93.293,93.293,0,0,1,55.263,8.02,91.741,91.741,0,0,1,90.652.027C91.413.009,92.172,0,92.906,0a93.572,93.572,0,0,1,18.725,1.887,92.382,92.382,0,0,1,33.221,13.979,93.169,93.169,0,0,1,33.66,40.876,92.4,92.4,0,0,1,5.413,17.44,93.573,93.573,0,0,1-2.464,46.9,93.155,93.155,0,0,1-54.523,58.273A49.024,49.024,0,0,0,105.4,195.641l-7.873,10.621a5.748,5.748,0,0,1-9.235,0ZM85.16,87.508A10.955,10.955,0,1,0,92.906,84.3,10.887,10.887,0,0,0,85.16,87.508Zm40.047,0a10.955,10.955,0,1,0,7.746-3.208A10.885,10.885,0,0,0,125.207,87.508Zm-80.093,0A10.955,10.955,0,1,0,52.86,84.3,10.886,10.886,0,0,0,45.114,87.508Z" transform="translate(113.142 359.142)" fill="#fff" stroke="rgba(0,0,0,0)" stroke-width="1"/>
    <path id="Union_6" data-name="Union 6" d="M167.241,265.336c-4.17-4.147-1.991-10.606,3.665-11.8,6.2-1.313,13.664-2.446,19.924-3.58,3.176-.575,4.634.441,7.061,1.872a4.836,4.836,0,0,1,3.237.95,93.966,93.966,0,0,0,9.425-3.725,58.684,58.684,0,0,0,18.224-12.962,40.99,40.99,0,0,0,8.729-14.68,26.14,26.14,0,0,0,.981-3.615,14.133,14.133,0,0,1-2.743-1.33q-1.78-1.077-3.546-2.137-.452.99-.918,1.972a1.694,1.694,0,0,1-2.469.774q-2.344-1.478-4.666-2.924a2.416,2.416,0,0,1-.922-2.77c8.733-23.6,13.575-47.6,19.565-72.317a2.451,2.451,0,0,1,2.423-1.769q2.868.158,5.715.326a1.759,1.759,0,0,1,1.613,2.131q-.186,1.1-.375,2.2,2.084.187,4.16.381h.005q.151-1.394.263-2.792A112.924,112.924,0,0,0,243.056,76.08a11.066,11.066,0,0,1-11.847-5.254q-1.8-2.671-3.741-5.244A123.512,123.512,0,0,0,207.555,45.7a125.7,125.7,0,0,0-25.124-14.667,127.253,127.253,0,0,0-29.316-7.993,130.261,130.261,0,0,0-31.174,0,127.218,127.218,0,0,0-29.317,7.993A125.679,125.679,0,0,0,67.5,45.7,123.49,123.49,0,0,0,47.573,65.6q-1.929,2.564-3.726,5.223a11.426,11.426,0,0,1-11.836,5.187,110.952,110.952,0,0,0-11.52,30.977,105.766,105.766,0,0,0-2.339,19.347,114.46,114.46,0,0,0,.582,15.908q1.6-.148,3.2-.292-.189-1.1-.375-2.2a1.76,1.76,0,0,1,1.613-2.131q2.848-.169,5.715-.326a2.451,2.451,0,0,1,2.423,1.769c5.99,24.716,10.833,48.721,19.565,72.317a2.416,2.416,0,0,1-.922,2.77q-2.324,1.448-4.667,2.924a1.694,1.694,0,0,1-2.469-.774q-.466-.984-.918-1.972-1.767,1.06-3.546,2.137a14.731,14.731,0,0,1-7.834,2.2,15.539,15.539,0,0,1-14.212-9.14q-.348-.786-.686-1.578a7.191,7.191,0,0,1-7.231-4.767A169.886,169.886,0,0,1,.1,169.412a9.384,9.384,0,0,1,3.608-8.885c-.241-6.92,3-13.039,7.853-16.117q-.211-1.755-.373-3.515A120.163,120.163,0,0,1,25.672,72.222a11.705,11.705,0,0,1-2.1-4.047,11.269,11.269,0,0,1,1.119-8.548q1.627-2.408,3.36-4.741A136.6,136.6,0,0,1,65.82,20.033a133.461,133.461,0,0,1,47.149-17.9,142.473,142.473,0,0,1,55.146,1.185,133.316,133.316,0,0,1,46.053,19.927,136.609,136.609,0,0,1,36.2,36.386c2.667,3.949,1.711,8.963-1.039,12.474A120.87,120.87,0,0,1,263.4,145a18.461,18.461,0,0,1,6.988,15.525A9.383,9.383,0,0,1,274,169.412a169.84,169.84,0,0,1-8.292,33.773,7.189,7.189,0,0,1-7.231,4.767q-.338.792-.686,1.578a15.607,15.607,0,0,1-16.031,9.033,28.459,28.459,0,0,1-1.052,3.86,43.829,43.829,0,0,1-9.333,15.726,61.6,61.6,0,0,1-19.207,13.676,98.622,98.622,0,0,1-9.695,3.837,3.745,3.745,0,0,1-2.192,3.049c-1.262,2.851-2.292,4.444-5.958,5.251-6.126,1.349-13.813,2.186-19.87,3.642a6.2,6.2,0,0,1-1.445.166A8.531,8.531,0,0,1,167.241,265.336Z" transform="translate(69 312.042)" fill="#3c3c41" stroke="rgba(0,0,0,0)" stroke-width="1"/>
  </g>
</svg>
