<svg xmlns="http://www.w3.org/2000/svg" width="39.15" height="43.286" viewBox="0 0 39.15 43.286">
  <g id="Group_3668" data-name="Group 3668" transform="translate(-308.136 -728.866)">
    <g id="Group_3667" data-name="Group 3667" transform="translate(308.136 730.669)">
      <path id="Path_86693" data-name="Path 86693" d="M1.415,301.271a1.758,1.758,0,0,1-.977-1.823c.025-4.365.01-8.73.016-13.1a2.892,2.892,0,0,1,.093-.832,1.258,1.258,0,0,1,1.328-.83A1.231,1.231,0,0,1,3.1,285.6a2.86,2.86,0,0,1,.075.709q.006,5.851,0,11.7v.527H33.794v-.486q0-5.956,0-11.913a1.326,1.326,0,0,1,1.638-1.432,1.223,1.223,0,0,1,1.059,1.095,5.42,5.42,0,0,1,.028.632c0,4.337-.012,8.674.013,13.011a1.756,1.756,0,0,1-.976,1.823Z" transform="translate(-0.438 -259.788)" fill="#00e487"/>
      <path id="Path_86694" data-name="Path 86694" d="M106.675,273.041a1.325,1.325,0,0,1-1.7,1.347c-.978-.191-1.953-.4-2.93-.6q-6.954-1.427-13.908-2.85c-1.119-.228-1.624-1.042-1.2-1.979a1.262,1.262,0,0,1,1.448-.752q6.582,1.345,13.163,2.7,1.98.406,3.96.813a1.3,1.3,0,0,1,1.172,1.325" transform="translate(-78.575 -245.587)" fill="#00e487"/>
      <path id="Path_86695" data-name="Path 86695" d="M134.928,168.054a1.3,1.3,0,0,1-1.911,1.086c-1.8-.866-3.576-1.77-5.362-2.661q-5.111-2.549-10.219-5.1a1.326,1.326,0,0,1-.66-1.985,1.282,1.282,0,0,1,1.794-.477c1.926.952,3.846,1.915,5.767,2.874q4.823,2.407,9.647,4.813a1.431,1.431,0,0,1,.944,1.45" transform="translate(-105.825 -145.393)" fill="#00e487"/>
      <path id="Path_86696" data-name="Path 86696" d="M93.88,366.769c2.9,0,5.8-.005,8.7,0a1.331,1.331,0,0,1,1.311,1.873,1.265,1.265,0,0,1-1.289.835c-1.239.006-2.479,0-3.718,0q-6.844,0-13.689,0a1.349,1.349,0,0,1-1.353-1.887,1.213,1.213,0,0,1,1.247-.821c1.183-.01,2.366,0,3.549,0H93.88" transform="translate(-75.784 -335.85)" fill="#00e487"/>
      <path id="Path_86697" data-name="Path 86697" d="M167.815,76a6.014,6.014,0,0,1,.906.48q5.162,3.949,10.308,7.921l3.278,2.522a1.245,1.245,0,0,1,.514,1.41,1.4,1.4,0,0,1-1.157,1.042,1.435,1.435,0,0,1-1.154-.4q-3.259-2.513-6.522-5.021-3.5-2.69-6.991-5.381a1.267,1.267,0,0,1-.523-1.515A1.649,1.649,0,0,1,167.815,76" transform="translate(-151.459 -69.649)" fill="#00e487"/>
      <path id="Path_86698" data-name="Path 86698" d="M249.854.786a1.353,1.353,0,0,1,1.155.664q2.362,3.107,4.729,6.211,2.71,3.558,5.42,7.117a1.3,1.3,0,0,1,.16,1.6,1.344,1.344,0,0,1-1.486.628,1.866,1.866,0,0,1-.828-.593q-4.318-5.621-8.6-11.269-.831-1.091-1.658-2.185a1.205,1.205,0,0,1-.145-1.381,1.407,1.407,0,0,1,1.254-.79" transform="translate(-226.578 -0.785)" fill="#00e487"/>
    </g>
    <path id="Path_86699" data-name="Path 86699" d="M1.409,0A1.353,1.353,0,0,1,2.564.665C4.139,2.736,6.791,5.693,8.6,8.067a1.3,1.3,0,0,1,.16,1.6,1.344,1.344,0,0,1-1.486.628A1.866,1.866,0,0,1,6.441,9.7C3.816,6.283.849,2.9.3,2.172A1.205,1.205,0,0,1,.155.791,1.408,1.408,0,0,1,1.409,0" transform="translate(338.591 728.866) rotate(14)" fill="#00e487"/>
  </g>
</svg>
