<svg xmlns="http://www.w3.org/2000/svg" width="19.719" height="21.294" viewBox="0 0 19.719 21.294">
  <g id="Group_4579" data-name="Group 4579" transform="translate(0.199 0.2)">
    <g id="Group_4580" data-name="Group 4580">
      <path id="Path_86939" data-name="Path 86939" d="M19.319,7.4c-.021,1.225-.034,2.45-.066,3.674a8.884,8.884,0,0,1-3.073,6.6,14.344,14.344,0,0,1-5.837,3.141,2.96,2.96,0,0,1-1.716-.094,14.444,14.444,0,0,1-5.541-3.068A9.128,9.128,0,0,1,.242,12.827a10.076,10.076,0,0,1-.214-2.172C.009,9.242-.007,7.828,0,6.415c.008-1.1.059-2.2.093-3.3a1.818,1.818,0,0,1,.04-.326.356.356,0,0,1,.379-.315A14.665,14.665,0,0,0,2.91,2.219,24.283,24.283,0,0,0,9.446.052a.414.414,0,0,1,.4,0,23.865,23.865,0,0,0,6.939,2.229c.63.1,1.274.13,1.912.181.335.027.459.114.478.449.044.784.081,1.569.1,2.355.016.711,0,1.422,0,2.134h.04M.793,3.184c-.01.181-.024.369-.03.557q-.111,3.352-.037,6.7a11.381,11.381,0,0,0,.154,1.993A8.42,8.42,0,0,0,3.645,17.2a13.643,13.643,0,0,0,5.28,2.865,1.76,1.76,0,0,0,.967.119c.186-.05.377-.086.562-.141a14.005,14.005,0,0,0,4.954-2.631A8.732,8.732,0,0,0,18.2,13.326a8.941,8.941,0,0,0,.371-2.6q.081-3.418-.027-6.836c-.007-.24-.025-.481-.038-.726l-.144-.011c-.476-.045-.956-.066-1.428-.139A24.961,24.961,0,0,1,9.754.792a.2.2,0,0,0-.206,0A22.013,22.013,0,0,1,6.363,2.068a24.228,24.228,0,0,1-3.991.948c-.517.072-1.038.112-1.58.168" transform="translate(0 0)" fill="#3c3c41" stroke="#3c3c41" stroke-width="0.4"/>
      <path id="Path_86940" data-name="Path 86940" d="M69.662,153.882h-.139q-2.324,0-4.649,0a2.1,2.1,0,0,0-2.15,2.137c-.007,1.15,0,2.3,0,3.45a.51.51,0,0,0,.57.568h5.325v-.173c0-.847,0-1.694,0-2.542a1.9,1.9,0,0,1,.063-.467,1.6,1.6,0,0,1,1.549-1.166,2.112,2.112,0,0,1-.571-1.808" transform="translate(-58.978 -144.7)" fill="#3c3c41"/>
      <path id="Path_86941" data-name="Path 86941" d="M96.071,66.8a2.626,2.626,0,1,0-2.632-2.6,2.632,2.632,0,0,0,2.632,2.6" transform="translate(-87.864 -57.877)" fill="#3c3c41"/>
      <path id="Path_86942" data-name="Path 86942" d="M178.271,197.023a.775.775,0,0,0-.834-.792h-3a.886.886,0,0,0-.913.915q0,1.159,0,2.318v.163h4.741a.158.158,0,0,0,.011-.034c0-.856.009-1.712,0-2.568" transform="translate(-163.168 -184.522)" fill="#3c3c41"/>
      <path id="Path_86943" data-name="Path 86943" d="M191.939,139.747a1.358,1.358,0,1,0-1.338-1.4,1.36,1.36,0,0,0,1.338,1.4" transform="translate(-179.229 -128.856)" fill="#3c3c41"/>
    </g>
  </g>
</svg>
