<svg xmlns="http://www.w3.org/2000/svg" xmlns:xlink="http://www.w3.org/1999/xlink" width="62" height="55" viewBox="0 0 62 55">
  <defs>
    <clipPath id="clip-path">
      <rect id="Rectangle_1556" data-name="Rectangle 1556" width="62" height="55" transform="translate(0.495 0.367)" fill="#01e486" stroke="#01e486" stroke-width="0.5"/>
    </clipPath>
  </defs>
  <g id="Group_4485" data-name="Group 4485" transform="translate(-185 -559)">
    <g id="Mask_Group_70" data-name="Mask Group 70" transform="translate(184.505 558.633)" clip-path="url(#clip-path)">
      <g id="Layer_x0020_1" transform="translate(-0.514 3.044)">
        <path id="Path_86334" data-name="Path 86334" d="M88.31,53.432,99.2,53.425l0-10.883-10.9.006.009,10.885Zm1.144-9.3v8.14l.443.007h7.788l.359,0,.007-.528V44.308l0-.62-8.592,0,0,.451Z" transform="translate(-75.139 -36.2)" fill="#01e486" stroke="#01e486" stroke-width="0.5" fill-rule="evenodd"/>
        <path id="Path_86335" data-name="Path 86335" d="M266.387,53.461l10.881-.008-.006-10.867-10.877-.011,0,10.885Zm1.145-1.2c.728.176,7.476.1,8.6.032l0-8.564c-.962-.072-8.031-.116-8.6.034l0,8.5Z" transform="translate(-226.677 -36.229)" fill="#01e486" stroke="#01e486" stroke-width="0.5" fill-rule="evenodd"/>
        <path id="Path_86336" data-name="Path 86336" d="M88.357,231.481l10.878-.01,0-10.83-10.846-.035Zm1.166-1.146,8.554,0c.079-.863.1-8.08-.031-8.586h-8.5C89.415,222.3,89.438,229.476,89.523,230.335Z" transform="translate(-75.186 -187.723)" fill="#01e486" stroke="#01e486" stroke-width="0.5" fill-rule="evenodd"/>
        <path id="Path_86337" data-name="Path 86337" d="M50.2,168.429l-1.131-.022.012,23.619c.219.737.954.5,1.807.5,15.323,0,30.736-.066,46.038,0,1.054,0,1.355.151,1.353-.958l0-18.437c0-1.476.092-3.277-.021-4.713l-1.1,0-.026,22.975L50.2,191.386l0-22.958Z" transform="translate(-41.754 -143.304)" fill="#01e486" stroke="#01e486" stroke-width="0.5" fill-rule="evenodd"/>
        <path id="Path_86338" data-name="Path 86338" d="M49.071.534v23.45l1.131-.017,0-22.81L97.134,1.15l.022,22.836,1.1-.007c.112-1.348.021-7.358.021-9.209l0-13.852c0-.953-.384-.918-1.266-.913-15.289.093-30.8,0-46.126,0-.365,0-.766-.016-1.126,0-.535.021-.592.081-.692.529Z" transform="translate(-41.755 0.001)" fill="#01e486" stroke="#01e486" stroke-width="0.5" fill-rule="evenodd"/>
        <path id="Path_86339" data-name="Path 86339" d="M7.324,51.771,7.312,28.153l1.131.022,10.438-.009a8.725,8.725,0,0,0,.077,2.242l1.106.01a12.138,12.138,0,0,0,.057-2.255l9.12,0v1.871l.043-1.886,1.132.026L55.4,28.164l1.1,0h7.27l.025-1.131-7.3,0-1.1.007-31.041-.02-1.125.017,0-1.841L23.2,27.028l-3.073,0-.052-1.867-.032,1.852-1.078.014L8.442,27.017l-1.131.017V3.584L7.276,27.028H.07a2.256,2.256,0,0,0,0,1.145l7.2-.008c.019,2.341-.091,23.326.049,23.605Z" transform="translate(0.003 -3.05)" fill="#01e486" stroke="#01e486" stroke-width="0.5" fill-rule="evenodd"/>
        <path id="Path_86340" data-name="Path 86340" d="M104.236,64.593l6.152,0,0-6.145-6.148,0-.005,6.14Zm1.147-1.152.5.012,2.942,0,.409,0,.013-3.851-3.859-.009Z" transform="translate(-88.698 -49.739)" fill="#01e486" stroke="#01e486" stroke-width="0.5" fill-rule="evenodd"/>
        <path id="Path_86341" data-name="Path 86341" d="M104.208,242.572h6.117l.037-6.147-6.161,0,.008,6.15Zm1.143-4.206v3.045l3.867.026,0-3.855-3.862-.01v.8Z" transform="translate(-88.668 -201.181)" fill="#01e486" stroke="#01e486" stroke-width="0.5" fill-rule="evenodd"/>
        <path id="Path_86342" data-name="Path 86342" d="M282.266,64.6l6.148-.006V58.476l-6.14-.026Zm1.138-1.144,3.861-.009.01-3.832-3.859-.031-.012,3.872Z" transform="translate(-240.191 -49.738)" fill="#01e486" stroke="#01e486" stroke-width="0.5" fill-rule="evenodd"/>
        <path id="Path_86343" data-name="Path 86343" d="M184.013,117.05l6.133.014.018-1.114-5.016-.029,0-4.987-1.118-.027Z" transform="translate(-156.584 -94.375)" fill="#01e486" stroke="#01e486" stroke-width="0.5" fill-rule="evenodd"/>
        <path id="Path_86344" data-name="Path 86344" d="M221.412,241.984l1.139,0,0-4.436,3.987,0,.03-1.15-5.157,0Z" transform="translate(-188.404 -201.16)" fill="#01e486" stroke="#01e486" stroke-width="0.5" fill-rule="evenodd"/>
        <path id="Path_86345" data-name="Path 86345" d="M181.879,69.338l8.858,0,.008-1.144h-8.873Z" transform="translate(-154.762 -58.026)" fill="#01e486" stroke="#01e486" stroke-width="0.5" fill-rule="evenodd"/>
        <path id="Path_86346" data-name="Path 86346" d="M284.792,177.962l2.117.015.009,4.653,1.135-.013.01-5.775-3.266-.017Z" transform="translate(-242.341 -150.467)" fill="#01e486" stroke="#01e486" stroke-width="0.5" fill-rule="evenodd"/>
        <path id="Path_86347" data-name="Path 86347" d="M317.815,127.553l-2.208.009.007,1.151,3.347-.01,0-4.39-1.14-.036Z" transform="translate(-268.562 -105.753)" fill="#01e486" stroke="#01e486" stroke-width="0.5" fill-rule="evenodd"/>
        <path id="Path_86348" data-name="Path 86348" d="M108.089,129.824l1.137-.013.01-2.115,2.7,0-.016-1.135-3.794,0Z" transform="translate(-91.977 -107.69)" fill="#01e486" stroke="#01e486" stroke-width="0.5" fill-rule="evenodd"/>
        <path id="Path_86349" data-name="Path 86349" d="M278.962,285.756l5.858,0,.026-1.138-5.895-.008Z" transform="translate(-237.371 -242.189)" fill="#01e486" stroke="#01e486" stroke-width="0.5" fill-rule="evenodd"/>
        <path id="Path_86350" data-name="Path 86350" d="M265.454,127.165l-2.33.012.019,1.143,3.441,0,.021-3.369-1.155-.023Z" transform="translate(-223.902 -106.303)" fill="#01e486" stroke="#01e486" stroke-width="0.5" fill-rule="evenodd"/>
        <path id="Path_86351" data-name="Path 86351" d="M181.265,170.281l-2.593.007-.018,1.109,3.783.024,0-3-1.132-.026Z" transform="translate(-152.024 -143.294)" fill="#01e486" stroke="#01e486" stroke-width="0.5" fill-rule="evenodd"/>
        <path id="Path_86352" data-name="Path 86352" d="M252.064,270.249l1.145-.018v-2.682l1.77,0-.014-1.151-2.874,0Z" transform="translate(-214.491 -226.692)" fill="#01e486" stroke="#01e486" stroke-width="0.5" fill-rule="evenodd"/>
        <path id="Path_86353" data-name="Path 86353" d="M207.806,92.742l1.129.019.013-5.633-1.127-.019Z" transform="translate(-176.83 -74.125)" fill="#01e486" stroke="#01e486" stroke-width="0.5" fill-rule="evenodd"/>
        <path id="Path_86354" data-name="Path 86354" d="M221.43,177.914l1.137,0V172.7l-1.137-.01Z" transform="translate(-188.422 -146.945)" fill="#01e486" stroke="#01e486" stroke-width="0.5" fill-rule="evenodd"/>
        <path id="Path_86355" data-name="Path 86355" d="M303.552,240.39l2.353.033.006-1.148-1.236,0-.016-2.4c-1.386-.11-1.121-.1-1.12,1.147,0,.747-.045,1.64.013,2.367Z" transform="translate(-258.276 -201.53)" fill="#01e486" stroke="#01e486" stroke-width="0.5" fill-rule="evenodd"/>
        <path id="Path_86356" data-name="Path 86356" d="M189.013,228l-1.278.012.018,1.139,2.381,0,.029-3.5-1.137-.011Z" transform="translate(-159.751 -192.002)" fill="#01e486" stroke="#01e486" stroke-width="0.5" fill-rule="evenodd"/>
        <path id="Path_86357" data-name="Path 86357" d="M89.651,178.03h1.142l-.007-4.61-1.124,0Z" transform="translate(-76.288 -147.566)" fill="#01e486" stroke="#01e486" stroke-width="0.5" fill-rule="evenodd"/>
        <path id="Path_86358" data-name="Path 86358" d="M119.9,201.588l4.432,0,.039-1.144-4.481.007Z" transform="translate(-102.016 -170.568)" fill="#01e486" stroke="#01e486" stroke-width="0.5" fill-rule="evenodd"/>
        <path id="Path_86359" data-name="Path 86359" d="M184.651,289.439l4.028,0V288.29l-4.033,0Z" transform="translate(-157.123 -245.316)" fill="#01e486" stroke="#01e486" stroke-width="0.5" fill-rule="evenodd"/>
        <path id="Path_86360" data-name="Path 86360" d="M330.431,224.458l1.136-.012V220.8l-1.141-.031Z" transform="translate(-281.173 -187.865)" fill="#01e486" stroke="#01e486" stroke-width="0.5" fill-rule="evenodd"/>
        <path id="Path_86361" data-name="Path 86361" d="M172.78,210.862l3.523.008.026-1.145h-3.561Z" transform="translate(-147.015 -178.462)" fill="#01e486" stroke="#01e486" stroke-width="0.5" fill-rule="evenodd"/>
        <path id="Path_86362" data-name="Path 86362" d="M238.484,102.143l.027-3.355-1.125-.012c-.068.686-.015,1.6-.017,2.3,0,1.2-.234,1.174,1.114,1.069Z" transform="translate(-201.971 -84.052)" fill="#01e486" stroke="#01e486" stroke-width="0.5" fill-rule="evenodd"/>
        <path id="Path_86363" data-name="Path 86363" d="M169.47,267.548l3.291-.005-.013-1.151-3.242,0Z" transform="translate(-144.209 -226.683)" fill="#01e486" stroke="#01e486" stroke-width="0.5" fill-rule="evenodd"/>
        <path id="Path_86364" data-name="Path 86364" d="M253.414,194.306l2.918.01-.008-1.155-2.893.009Z" transform="translate(-215.639 -164.368)" fill="#01e486" stroke="#01e486" stroke-width="0.5" fill-rule="evenodd"/>
        <path id="Path_86365" data-name="Path 86365" d="M280.974,231.121l1.146-.022v-2.474l-1.126-.029Z" transform="translate(-239.091 -194.522)" fill="#01e486" stroke="#01e486" stroke-width="0.5" fill-rule="evenodd"/>
        <path id="Path_86366" data-name="Path 86366" d="M330.422,181.22l1.135-.012,0-2.266-1.144-.032Z" transform="translate(-281.163 -152.243)" fill="#01e486" stroke="#01e486" stroke-width="0.5" fill-rule="evenodd"/>
        <path id="Path_86367" data-name="Path 86367" d="M127.013,170.608l1.139-.008,0-2.24-1.146.012Z" transform="translate(-108.073 -143.265)" fill="#01e486" stroke="#01e486" stroke-width="0.5" fill-rule="evenodd"/>
        <path id="Path_86368" data-name="Path 86368" d="M330.478,268.12l1.113-.006.02-2.277-1.11-.015Z" transform="translate(-281.216 -226.2)" fill="#01e486" stroke="#01e486" stroke-width="0.5" fill-rule="evenodd"/>
        <path id="Path_86369" data-name="Path 86369" d="M157,150.234,157,148.385l-1.115.025,0,1.841Z" transform="translate(-132.641 -126.266)" fill="#01e486" stroke="#01e486" stroke-width="0.5" fill-rule="evenodd"/>
        <path id="Path_86370" data-name="Path 86370" d="M127.066,150.229l1.078-.014.031-1.852-1.136.031Z" transform="translate(-108.102 -126.248)" fill="#01e486" stroke="#01e486" stroke-width="0.5" fill-rule="evenodd"/>
        <path id="Path_86371" data-name="Path 86371" d="M89.693,145.564h1.1l.026-1.692H89.7Z" transform="translate(-76.323 -122.425)" fill="#01e486" stroke="#01e486" stroke-width="0.5" fill-rule="evenodd"/>
      </g>
    </g>
    <path id="Path_86885" data-name="Path 86885" d="M25.976,29.7l-6.245-6.131a12.8,12.8,0,1,1,3.807-3.8l6.239,6.126a2.689,2.689,0,0,1-3.8,3.8Z" transform="translate(202.002 572.845)" fill="#3c3c41"/>
    <path id="Icon_fa-solid-magnifying-glass-plus" data-name="Icon fa-solid-magnifying-glass-plus" d="M22.719,11.359a11.332,11.332,0,0,1-2.185,6.7l6.914,6.919a1.749,1.749,0,1,1-2.474,2.474L18.06,20.534a11.361,11.361,0,1,1,4.658-9.175Zm-12.67,4.806a1.311,1.311,0,1,0,2.621,0v-3.5h3.5a1.311,1.311,0,0,0,0-2.621h-3.5v-3.5a1.311,1.311,0,1,0-2.621,0v3.5h-3.5a1.311,1.311,0,0,0,0,2.621h3.5Z" transform="translate(203.559 574.403)" fill="#00e487"/>
  </g>
</svg>
