<svg xmlns="http://www.w3.org/2000/svg" xmlns:xlink="http://www.w3.org/1999/xlink" width="136.968" height="83.612" viewBox="0 0 136.968 83.612">
  <defs>
    <linearGradient id="linear-gradient" y1="0.5" x2="1" y2="0.5" gradientUnits="objectBoundingBox">
      <stop offset="0" stop-color="#272626"/>
      <stop offset="0.549" stop-color="#2a3d4a"/>
      <stop offset="0.949" stop-color="#006ba4"/>
      <stop offset="1" stop-color="#006ba4"/>
    </linearGradient>
  </defs>
  <g id="Layer_x0020_1" transform="translate(0.01)">
    <g id="_2256335390304" transform="translate(-0.01)">
      <path id="Path_86992" data-name="Path 86992" d="M108.16,1500.338H0V1522.2H136.967V1479.56c0,15.583-12.977,20.778-28.807,20.778Z" transform="translate(0 -1438.583)" fill="url(#linear-gradient)"/>
      <path id="Path_86993" data-name="Path 86993" d="M108.151,61.754c15.832,0,28.807-5.195,28.807-20.778V0H-.01V61.753H108.15Z" transform="translate(0.01)" fill="#fefefe"/>
      <path id="Path_86994" data-name="Path 86994" d="M108.151,61.754c15.832,0,28.807-5.195,28.807-20.778V0H-.01V61.753H108.15Z" transform="translate(0.01)" fill="#fefefe"/>
      <path id="Path_86995" data-name="Path 86995" d="M484.113,743.653v19.758h-6.032v-7.769H471.8v7.769h-6.03V743.653h6.03v7.854h6.279v-7.854Zm20.979,15.79h0v-15.79h-6.028v19.758h10.9l.909-3.968h-5.785ZM494.6,743.653h-6.031v19.758H494.6Zm24.45,0h-6.029v19.758h6.029Zm29.74,5.043h0c0-1.075,1.075-1.57,2.808-1.57a15.187,15.187,0,0,1,5.372.991l-.5-4.3a23.561,23.561,0,0,0-5.536-.579c-4.871,0-8.177,1.921-8.177,5.953,0,6.942,9.417,5.538,9.417,8.762,0,1.238-.908,1.9-3.14,1.9a18.1,18.1,0,0,1-6.858-1.572l.664,4.548a19.989,19.989,0,0,0,6.277.991c5.038,0,9.169-1.653,9.169-6.613,0-6.614-9.5-5.374-9.5-8.515Zm-7.847,2.067h0c0,5.044-3.554,7.937-9.17,7.937h-2.149v4.71H523.6V743.653a67.816,67.816,0,0,1,7.352-.413c6.2,0,10,1.984,10,7.523Zm-5.948.082h0c0-2.48-1.405-3.886-4.379-3.886-.31,0-.64,0-.992.021v8.164h.992C533.758,755.144,535,753.408,535,750.845Zm-71.622-.082h0c0,5.044-3.551,7.937-9.17,7.937h-2.147v4.71h-6.03V743.653a67.792,67.792,0,0,1,7.352-.413c6.2,0,9.995,1.984,9.995,7.523Zm-5.948.082h0c0-2.48-1.4-3.886-4.377-3.886-.31,0-.64,0-.992.021v8.164h.992C456.19,755.144,457.428,753.408,457.428,750.845Z" transform="translate(-433.677 -722.656)" fill="#0073bb"/>
    </g>
  </g>
</svg>
