<svg xmlns="http://www.w3.org/2000/svg" width="21.896" height="21.665" viewBox="0 0 21.896 21.665">
  <path id="Union_2" data-name="Union 2" d="M-3852.847-1085.341c-.037,0-.073-.006-.128-.012v-1.37h7.436a1.845,1.845,0,0,0,2.035-2.015v-9.119h-.345c-.991,0-1.981,0-2.972,0a3.186,3.186,0,0,1-3.291-3.278v-3.466c-.111,0-.2-.014-.289-.014q-2.735,0-5.47,0a1.83,1.83,0,0,0-1.954,1.958q0,2.36,0,4.72v.313h-1.4v-.283q0-2.4,0-4.8a3.2,3.2,0,0,1,3.315-3.287q3.429,0,6.858,0a.557.557,0,0,1,.437.173q3.169,3.156,6.34,6.307a.552.552,0,0,1,.151.355q.012,5.356,0,10.712a3.169,3.169,0,0,1-3.069,3.106q-1.546.013-3.092.012C-3849.8-1085.335-3851.324-1085.341-3852.847-1085.341Zm-4.9-.453-3.3-3.083-.043-.04-1.614-1.51-.033-.031-.068-.064a.517.517,0,0,1-.156-.6.534.534,0,0,1,.543-.35h1.863v-1.249q0-1.409,0-2.816c0-.485.188-.674.671-.675l2.624,0,2.625,0c.445,0,.644.2.645.641,0,1.247,0,2.508,0,3.727v.372h1.031c.293,0,.531,0,.75,0h.024a.561.561,0,0,1,.6.348.6.6,0,0,1-.23.682c-1.174,1.092-2.364,2.2-3.514,3.279l-1.465,1.369a.731.731,0,0,1-.482.253A.725.725,0,0,1-3857.747-1085.794Zm-.739-7.361a1.963,1.963,0,0,0-.585,1.406,1.966,1.966,0,0,0,.585,1.41,1.732,1.732,0,0,0,1.213.5,1.713,1.713,0,0,0,1.061-.368,1.956,1.956,0,0,0,.742-1.623c0-.025-.008-.056-.012-.091a2.831,2.831,0,0,0-.064-.36,1.794,1.794,0,0,0-1.735-1.37A1.724,1.724,0,0,0-3858.486-1093.155Zm11.215,4.492h-.834c-.7,0-1.407,0-2.111,0a.579.579,0,0,1-.641-.629.565.565,0,0,1,.611-.516q2.165-.006,4.332,0a.557.557,0,0,1,.6.555.553.553,0,0,1-.569.586c-.208.008-.416.01-.625.01C-3846.762-1088.66-3847.016-1088.663-3847.271-1088.663Zm-.8-2.208h0c-.713,0-1.426,0-2.139,0a.573.573,0,0,1-.632-.682c.055-.3.28-.464.655-.465q1.8,0,3.61,0c.223,0,.445,0,.667,0a.566.566,0,0,1,.6.556.56.56,0,0,1-.6.589c-.3,0-.6.005-.9.005Zm-.013-2.206c-.694,0-1.389,0-2.083,0-.43,0-.692-.226-.685-.585s.26-.563.68-.563q2.1,0,4.194,0c.418,0,.67.219.672.571s-.252.575-.666.577l-.844,0Zm-5.591-5.154h-.529c-.323,0-.646,0-.969,0-.4,0-.637-.215-.629-.541s.24-.511.627-.513q1.512,0,3.023,0c.391,0,.61.2.611.525s-.222.523-.609.528c-.209,0-.419,0-.628,0Zm-.014-2.19c-.5,0-1,0-1.5,0-.373,0-.613-.208-.614-.525s.236-.523.614-.524q1.526,0,3.051,0c.378,0,.6.208.594.537-.007.314-.229.509-.594.511l-.621,0Z" transform="translate(3863.505 1106.5)" fill="#3c3c41" stroke="rgba(0,0,0,0)" stroke-width="1"/>
</svg>
