<svg xmlns="http://www.w3.org/2000/svg" width="18.362" height="21.202" viewBox="0 0 18.362 21.202">
  <path id="deactivate-user-svgrepo-com" d="M9.181,156a4.949,4.949,0,0,1,4.944,4.944v1.412a4.914,4.914,0,0,1-1.736,3.73c.766.092,1.528.208,2.284.366a4.864,4.864,0,0,1,3.689,4.848v2.713l-.288.212a15.238,15.238,0,0,1-8.9,2.977c-.223,0-.448-.006-.675-.016a15.042,15.042,0,0,1-8.209-2.963L0,174.012V171.3a4.865,4.865,0,0,1,3.692-4.848c.751-.157,1.511-.278,2.274-.371a4.9,4.9,0,0,1-1.729-3.723v-1.412A4.949,4.949,0,0,1,9.181,156Zm-1.172,4.237c-1.251,0-1.5.922-2.359,1.271v.847a3.531,3.531,0,1,0,7.062,0v-1.412c0-.032-.008-.064-.01-.1l-.025.023-.025.023-.013.012-.025.023-.025.023-.025.023-.013.012-.025.023a1.959,1.959,0,0,1-1.453.642C9.534,161.65,9.534,160.238,8.009,160.238Z" transform="translate(0 -156)" fill="#3c3c41" fill-rule="evenodd"/>
</svg>
