<svg xmlns="http://www.w3.org/2000/svg" width="20.243" height="23.226" viewBox="0 0 20.243 23.226">
  <path id="Subtraction_21" data-name="Subtraction 21" d="M2552.716-7585.775a1.745,1.745,0,0,1-.541-.115l-.005,0a1.864,1.864,0,0,0-.5-.112c-.16-.06-.321-.119-.479-.176l-.493-.175-.571-.2a2.136,2.136,0,0,0-.7-.3l-.211-.1q-.389-.183-.778-.363l-.113-.063-.075-.042-.148-.083c-.353-.2-.671-.388-.993-.571l-.443-.3c-.213-.159-.5-.367-.781-.577l-.125-.1-.3-.25c-.252-.254-.5-.506-.758-.76l-.068-.083-.034-.042-.251-.306-.579-.882c-.062-.111-.125-.221-.187-.331l-.046-.125q-.2-.546-.395-1.092c0-.022,0-.044,0-.066a.913.913,0,0,0-.107-.5v-.025l0-.032c-.009-.161-.017-.319-.024-.478q.005-3.918.013-7.833l0-.883c0-.153,0-.309.006-.458v-.021c0-.061,0-.122,0-.183.166-.04.337-.073.512-.106a5.459,5.459,0,0,0,1.145-.31,1.752,1.752,0,0,0,.77-.227,11.374,11.374,0,0,0,2.755-1.121,6.672,6.672,0,0,0,1.579-.869,12.168,12.168,0,0,0,2.4-1.717.685.685,0,0,1,.45-.232.6.6,0,0,1,.409.209l.046.039.107.09.073.062.119.1a2.5,2.5,0,0,0,.741.565,1.126,1.126,0,0,0,.471.321,3.032,3.032,0,0,0,.852.563,1.106,1.106,0,0,0,.477.292,4.194,4.194,0,0,0,1.1.577.752.752,0,0,0,.443.216,3.827,3.827,0,0,0,1.1.471.826.826,0,0,0,.451.178,3.669,3.669,0,0,0,1.086.354,1.627,1.627,0,0,0,.678.2,3.316,3.316,0,0,0,1.09.239c.356.052.355.3.354.563v.052c0,2.91.005,5.856.011,8.871q-.034.273-.068.546t-.068.546q-.13.36-.259.722l-.048.133-.132.369a10.85,10.85,0,0,1-3.863,3.853l-.35.187-.126.067-.976.522q-.9.36-1.807.722l-.711.285a4.288,4.288,0,0,0-1.025.309A.881.881,0,0,1,2552.716-7585.775Zm-4.953-12.692a.077.077,0,0,0-.049.019c-.426.346-.919.75-1.388,1.161a.2.2,0,0,0-.088.149c0,.071.075.126.145.18l.007.006c.019.015.038.029.054.043.061.072.123.143.185.213l.02.023.06.068.048.055a4.429,4.429,0,0,0,.694.832l.014.014a.755.755,0,0,0,.3.344,3.767,3.767,0,0,0,.657.773l.156.181.14.162a4.689,4.689,0,0,0,.722.859,1.458,1.458,0,0,0,.412.478,3.224,3.224,0,0,0,.647.758,1.112,1.112,0,0,0,.359.428,3.688,3.688,0,0,0,.659.773.455.455,0,0,1,.15.2c.053.106.109.215.2.215.068,0,.145-.055.242-.174.612-.748,1.217-1.521,1.8-2.27l0-.006q.368-.47.736-.939l.457-.563c1.231-1.527,2.5-3.105,3.781-4.672a.345.345,0,0,0,.107-.264c-.019-.1-.123-.155-.234-.217l-.02-.011-.044-.025a1.172,1.172,0,0,0-.437-.35l-.074-.075-.006-.006a2.032,2.032,0,0,0-.154-.146c-.27-.218-.418-.337-.545-.337s-.257.144-.509.458c-1.268,1.585-2.931,3.663-4.549,5.68-.277.345-.415.518-.563.518s-.29-.156-.566-.44a.782.782,0,0,0-.3-.343,4.653,4.653,0,0,0-.754-.894,1.11,1.11,0,0,0-.369-.433,3.709,3.709,0,0,0-.655-.768l-.058-.069-.053-.063-.2-.238a.189.189,0,0,0-.038-.046l-.358-.42-.12-.141-.19-.223a.827.827,0,0,0-.309-.359A.152.152,0,0,0,2547.762-7598.467Z" transform="translate(-2542.501 7608.5)" fill="#3c3c41" stroke="rgba(0,0,0,0)" stroke-width="1"/>
</svg>
