<svg xmlns="http://www.w3.org/2000/svg" width="40.435" height="47.052" viewBox="0 0 40.435 47.052">
  <g id="Group_4487" data-name="Group 4487" transform="translate(0.041 -0.229)">
    <g id="Group_4451" data-name="Group 4451" transform="translate(-0.041 0.229)">
      <path id="Path_86874" data-name="Path 86874" d="M35.565,0a2.748,2.748,0,0,1,1.949,1.7,3.909,3.909,0,0,1,.181,1.167q.015,11.555.006,23.111c0,.963-.6,1.515-1.422,1.318a1.145,1.145,0,0,1-.866-1.06c-.013-.152,0-.306,0-.459q0-11.372,0-22.743c0-.739-.011-.75-.74-.75H3.013c-.709,0-.72.01-.72.724q0,20.515,0,41.03c0,.717.01.727.717.727H22.859c.8,0,1.3.374,1.361,1.06a1.233,1.233,0,0,1-.786,1.225H2.114c-.233-.1-.472-.192-.7-.3A3.053,3.053,0,0,1,0,44.938V2.114A3.086,3.086,0,0,1,2.114,0Z" fill="#3c3c41"/>
      <path id="Path_86875" data-name="Path 86875" d="M290.058,351.768c-.349.554-.906.484-1.431.45-.386-.025-.531.116-.732.465-.407.706-.4,1.194.285,1.705.42.314.382.739.023,1.118q-.488.518-1.006,1.007c-.386.364-.815.419-1.119,0a1.332,1.332,0,0,0-1.962-.389c-.257.132-.336.239-.321.494.082,1.429-.267,1.518-1.511,1.493-1.491-.03-1.51-.026-1.514-1.519,0-.137,0-.274,0-.413-.423-.2-.829-.4-1.243-.587a.46.46,0,0,0-.281.024c-.052.015-.089.081-.133.123-1.091,1.048-1.091,1.047-2.174-.035-1-1-1-1.079,0-2.076.108-.108.234-.2.338-.285-.167-.466-.3-.886-.472-1.287a.475.475,0,0,0-.341-.2c-.272-.03-.551.005-.825-.015a.732.732,0,0,1-.742-.769c-.013-.5-.013-1.011,0-1.515.014-.45.288-.789.71-.718a1.312,1.312,0,0,0,1.7-1.1,2.313,2.313,0,0,1,.186-.383c-.245-.224-.5-.44-.739-.68a.723.723,0,0,1,0-1.158c.332-.34.665-.677,1.008-1.006a.715.715,0,0,1,1.1-.016c.3.269.573.706.911.765s.768-.23,1.141-.4a.463.463,0,0,0,.224-.318c.033-.287,0-.581.015-.871a.709.709,0,0,1,.736-.718c.52-.014,1.041-.015,1.561,0a.657.657,0,0,1,.706.731,1.311,1.311,0,0,0,1.126,1.694,1.966,1.966,0,0,1,.357.186c.229-.258.447-.537.7-.777a.721.721,0,0,1,1.129.02q.5.479.974.974a.741.741,0,0,1-.017,1.2c-.259.259-.544.49-.783.7l.569,1.493c.6.123,1.366-.22,1.849.481Zm-7.589-4.254a3.006,3.006,0,1,0,3.006,3,2.987,2.987,0,0,0-3.006-3" transform="translate(-249.623 -311.425)" fill="#3c3c41"/>
      <path id="Path_86878" data-name="Path 86878" d="M79.4,125.381V110.272h3.335v.49c0,4.7-.005,9.393.009,14.089,0,.413-.1.557-.53.541-.927-.034-1.857-.01-2.813-.01" transform="translate(-72.106 -100.138)" fill="#3c3c41"/>
      <path id="Path_86879" data-name="Path 86879" d="M225.017,72.008a5.38,5.38,0,0,1-7.788-6.426,5.3,5.3,0,0,1,4.32-3.507c.112.74.229,1.487.338,2.236.134.921.223,1.85.41,2.76a4.339,4.339,0,0,0,.555,1.191c.707,1.246,1.432,2.481,2.164,3.746" transform="translate(-196.999 -56.371)" fill="#3c3c41"/>
      <path id="Path_86880" data-name="Path 86880" d="M79.412,327.842v-2.578c.164-.01.326-.029.489-.029q7.324,0,14.648-.009c.388,0,.555.077.524.5a11.923,11.923,0,0,0,0,1.6c.026.4-.131.481-.5.478-2.2-.014-4.4-.011-6.6,0q-4,.011-8,.037h-.561" transform="translate(-72.114 -295.339)" fill="#3c3c41"/>
      <rect id="Rectangle_1904" data-name="Rectangle 1904" width="3.281" height="10.668" transform="translate(13.26 14.546)" fill="#3c3c41"/>
      <path id="Path_86881" data-name="Path 86881" d="M79.424,402.806v-2.515H90.473c0,.762,0,1.521,0,2.281,0,.328-.267.232-.443.233q-2.544.017-5.088.02-2.592.005-5.184,0c-.1,0-.205-.014-.333-.023" transform="translate(-72.125 -363.505)" fill="#3c3c41"/>
      <rect id="Rectangle_1905" data-name="Rectangle 1905" width="3.276" height="4.37" transform="translate(19.204 20.836)" fill="#3c3c41"/>
      <path id="Path_86882" data-name="Path 86882" d="M290.614,126.5l-2.749-4.128h4.948a4.655,4.655,0,0,1-2.2,4.128" transform="translate(-261.411 -111.129)" fill="#3c3c41"/>
      <path id="Path_86883" data-name="Path 86883" d="M280.136,56.4c-.107.007-.214.01-.321.023-.278.034-.409-.045-.423-.366-.069-1.6-.166-3.208-.25-4.811-.029-.544.012-.584.539-.566a5.554,5.554,0,0,1,5.475,4.949c.048.343-.1.426-.4.447-1.541.107-3.082.223-4.622.336V56.4m4.282-.963c.033-2.132-2.857-4.772-4.675-4.285l.243,4.686,4.432-.4" transform="translate(-253.483 -46.02)" fill="#3c3c41"/>
      <path id="Path_86884" data-name="Path 86884" d="M276.661,251.674c-1.055,0-2.091,0-3.127-.01-.072,0-.2-.147-.2-.227-.016-.685-.009-1.371-.009-2.087h3.339Z" transform="translate(-248.202 -226.435)" fill="#3c3c41"/>
    </g>
  </g>
</svg>
