<svg xmlns="http://www.w3.org/2000/svg" width="113.535" height="113.535" viewBox="0 0 113.535 113.535">
  <g id="Group_4056" data-name="Group 4056" transform="translate(-158 -312.232)">
    <path id="Path_86711" data-name="Path 86711" d="M113.535,56.77A56.768,56.768,0,1,1,56.768,0,56.767,56.767,0,0,1,113.535,56.77" transform="translate(158 312.23)" fill="#3c3c41"/>
    <g id="Group_4055" data-name="Group 4055" transform="translate(1655.575 -6271.535)">
      <path id="Path_86662" data-name="Path 86662" d="M184.308,29.564a7.137,7.137,0,1,1-1.248-10.016,7.137,7.137,0,0,1,1.248,10.016" transform="translate(-1633.911 6588.549)" fill="#fff"/>
      <path id="Path_86663" data-name="Path 86663" d="M219.591,57.025a7.137,7.137,0,1,1-1.248-10.016,7.137,7.137,0,0,1,1.248,10.016" transform="translate(-1625.014 6595.474)" fill="#fff"/>
      <path id="Path_86664" data-name="Path 86664" d="M163.957,54.612s11.524-12.411,24.679-2.173c14.146,11.009,4.266,24.7,4.266,24.7" transform="translate(-1635.823 6596.202)" fill="none" stroke="#fff" stroke-linecap="round" stroke-width="2"/>
    </g>
  </g>
</svg>
