<svg xmlns="http://www.w3.org/2000/svg" xmlns:xlink="http://www.w3.org/1999/xlink" width="46.794" height="37.759" viewBox="0 0 46.794 37.759">
  <defs>
    <clipPath id="clip-path">
      <rect id="Rectangle_1967" data-name="Rectangle 1967" width="46.794" height="37.759" fill="#1ecbd0"/>
    </clipPath>
  </defs>
  <g id="Group_4619" data-name="Group 4619" transform="translate(-132 -731.741)">
    <g id="Group_4599" data-name="Group 4599" transform="translate(132 731.741)">
      <g id="Group_4598" data-name="Group 4598" clip-path="url(#clip-path)">
        <path id="Path_87000" data-name="Path 87000" d="M39.059,9.458a4.83,4.83,0,0,1-.679.9,3.482,3.482,0,0,1-1.164.7,6.875,6.875,0,0,1-4.122.028,2.555,2.555,0,0,1-1.846-1.7c-.073.141-.116.217-.151.293a3.453,3.453,0,0,1-3.206,1.666c-.462.007-.931.022-1.387-.016a3.222,3.222,0,0,1-2.98-1.736l-.078-.18a5.276,5.276,0,0,1-.381.663,3.346,3.346,0,0,1-2.44,1.222,7.471,7.471,0,0,1-3.12-.2,2.722,2.722,0,0,1-1.859-1.706c-.071.14-.112.214-.147.289a3.466,3.466,0,0,1-3.259,1.659,11.105,11.105,0,0,1-1.912-.091A2.846,2.846,0,0,1,7.833,9.317a1.044,1.044,0,0,0-.111.165,3.1,3.1,0,0,1-2.948,1.83,11.882,11.882,0,0,1-2.051-.031A2.836,2.836,0,0,1,.007,9.26a.827.827,0,0,1,.088-.48Q2.11,4.907,4.148,1.039A2.45,2.45,0,0,1,6.374,0Q10.5,0,14.621,0,27.192,0,39.762,0a2.525,2.525,0,0,1,2.392,1.1c1.521,2.569,3.054,5.134,4.553,7.709a.938.938,0,0,1,.021.748c-.345,1.024-1.6,1.72-3.16,1.779-.432.016-.867.017-1.3,0a3.334,3.334,0,0,1-3.21-1.877" transform="translate(0 0)" fill="#1ecbd0"/>
        <path id="Path_87001" data-name="Path 87001" d="M31.961,80.145l1.621-.453v.9q0,9.747,0,19.494a3.888,3.888,0,0,0,1,2.792A3.362,3.362,0,0,0,37.127,104q13.534,0,27.067,0a3.561,3.561,0,0,0,3.488-3.219,8.367,8.367,0,0,0,.03-.85q0-9.881,0-19.763V79.7l1.594.438c.006.13.022.3.022.477q0,10.374,0,20.748a4.381,4.381,0,0,1-1.1,3.087,3.609,3.609,0,0,1-2.776,1.237q-14.833,0-29.666,0a3.891,3.891,0,0,1-3.769-3.427,7.084,7.084,0,0,1-.06-.938q0-10.33,0-20.659Z" transform="translate(-27.242 -67.927)" fill="#1ecbd0"/>
      </g>
    </g>
    <path id="Subtraction_24" data-name="Subtraction 24" d="M26.372,22.349H0a8.736,8.736,0,0,1,7.91-7.807C8.071,16.5,10.764,17.4,13.2,17.4a8.3,8.3,0,0,0,3.527-.709,2.746,2.746,0,0,0,1.755-2.136,8.709,8.709,0,0,1,7.891,7.8Zm-13.2-6.825c-3.14,0-5.527-3.988-6.218-6.819a7.375,7.375,0,0,1,.78-5.788,6.434,6.434,0,0,1,4.353-2.8A6.362,6.362,0,0,1,13.283,0a6.241,6.241,0,0,1,4.458,1.9,6.678,6.678,0,0,1,1.936,4.735,10.992,10.992,0,0,1-1.73,5.5,7.085,7.085,0,0,1-3.767,3.258A3.929,3.929,0,0,1,13.173,15.524Z" transform="translate(142.208 744.575)" fill="#00e487" stroke="rgba(0,0,0,0)" stroke-width="1"/>
  </g>
</svg>
