<svg xmlns="http://www.w3.org/2000/svg" width="49.394" height="49.477" viewBox="0 0 49.394 49.477">
  <g id="Group_4597" data-name="Group 4597" transform="translate(0 0)">
    <path id="Path_86999" data-name="Path 86999" d="M65.357,40.7h0A21.608,21.608,0,0,0,62.13,33.09,4.1,4.1,0,0,0,56.339,27.3a22.383,22.383,0,0,0-7.364-3.061h0a4.137,4.137,0,0,0-8.274,0,21.712,21.712,0,0,0-7.529,3.144h0a4.156,4.156,0,0,0-2.9-1.241,3.881,3.881,0,0,0-2.9,1.241,4.1,4.1,0,0,0,0,5.874h0A20.8,20.8,0,0,0,24.154,40.7a4.138,4.138,0,0,0,0,8.274,19.35,19.35,0,0,0,3.061,7.364c-.083,0-.083.083-.165.083a4.1,4.1,0,0,0,0,5.874,4.156,4.156,0,0,0,2.9,1.241,3.881,3.881,0,0,0,2.9-1.241l.083-.083a21.159,21.159,0,0,0,7.695,3.227,4.137,4.137,0,1,0,8.274,0h0a22.824,22.824,0,0,0,7.446-3.061h0a4.156,4.156,0,0,0,2.9,1.241,3.881,3.881,0,0,0,2.9-1.241,4.1,4.1,0,0,0,0-5.874h0a21.712,21.712,0,0,0,3.144-7.529h.083a4.1,4.1,0,0,0,4.137-4.137A4.149,4.149,0,0,0,65.357,40.7Zm-22.339-16.8a1.7,1.7,0,0,1,3.309,0v.331a1.655,1.655,0,0,1-3.309,0ZM24.154,46.493a.746.746,0,0,1-.414-.083A1.594,1.594,0,0,1,22.5,44.838a1.687,1.687,0,0,1,1.241-1.572c.165,0,.248-.083.414-.083a1.66,1.66,0,0,1,1.655,1.655A1.716,1.716,0,0,1,24.154,46.493ZM46.328,65.771a1.7,1.7,0,0,1-3.309,0V65.44a1.655,1.655,0,0,1,3.309,0ZM62.875,48.148a18.476,18.476,0,0,1-2.979,7.2c-.248,0-.414-.083-.662-.083a3.881,3.881,0,0,0-2.9,1.241,4.266,4.266,0,0,0-1.158,3.64,18.849,18.849,0,0,1-7.115,2.979,4.18,4.18,0,0,0-6.784,0,17.791,17.791,0,0,1-7.364-3.144A4.274,4.274,0,0,0,32.759,56.5a4.156,4.156,0,0,0-2.9-1.241,1.049,1.049,0,0,0-.5.083,18.849,18.849,0,0,1-2.979-7.115,4.071,4.071,0,0,0,0-6.784,18.641,18.641,0,0,1,2.979-7.115c.248,0,.414.083.662.083a3.881,3.881,0,0,0,2.9-1.241,4.266,4.266,0,0,0,1.158-3.64,18.476,18.476,0,0,1,7.2-2.979,4.081,4.081,0,0,0,3.392,1.737,4.193,4.193,0,0,0,3.392-1.737,18.007,18.007,0,0,1,6.867,2.813A3.975,3.975,0,0,0,56.09,33.09a4.156,4.156,0,0,0,2.9,1.241,2.815,2.815,0,0,0,.827-.083,18.476,18.476,0,0,1,2.979,7.2,4.271,4.271,0,0,0-1.737,3.309A4.4,4.4,0,0,0,62.875,48.148Zm2.648-1.655h-.248a1.655,1.655,0,1,1,0-3.309h.248a1.765,1.765,0,0,1,1.407,1.655A1.683,1.683,0,0,1,65.522,46.493Z" transform="translate(-20.1 -20.1)" fill="#1ecbd0"/>
    <g id="Group_4596" data-name="Group 4596" transform="translate(16.606 15.107)">
      <path id="Path_1567" data-name="Path 1567" d="M172.916,350.8a1.968,1.968,0,0,0,1,.886c3.016.519,12.913.2,12.928.2l.3-.04c.145-.041.254-.057.4-.1,1.669-.465,1.7-2.693,1.3-4.037a5.441,5.441,0,0,0-4.737-3.911c-.233,2.381-6.4,2.353-6.591-.005a5.418,5.418,0,0,0-4.708,3.821A4.4,4.4,0,0,0,172.916,350.8Z" transform="translate(-172.564 -334.732)" fill="#00e487" fill-rule="evenodd"/>
      <path id="Path_1568" data-name="Path 1568" d="M182.495,329.685c-2.622.5-3.818,2.82-3.2,5.356.452,1.852,2.183,4.784,4.5,4.168,1.722-.457,3.4-3.141,3.428-5.459A4.052,4.052,0,0,0,182.495,329.685Z" transform="translate(-174.935 -329.613)" fill="#00e487" fill-rule="evenodd"/>
    </g>
  </g>
</svg>
