<svg xmlns="http://www.w3.org/2000/svg" width="22.486" height="21.276" viewBox="0 0 22.486 21.276">
  <g id="Group_2852" data-name="Group 2852" transform="translate(0)">
    <path id="Subtraction_2" data-name="Subtraction 2" d="M5.565,11.13A5.565,5.565,0,1,1,11.13,5.565,5.571,5.571,0,0,1,5.565,11.13Zm0-3.27H7.425a.18.18,0,0,0,.2-.172,2.922,2.922,0,0,0,.018-.369,1.672,1.672,0,0,0-1.68-1.7c-.464,0-.464,0-.816,0H5.136a1.506,1.506,0,0,0-.667.145A1.754,1.754,0,0,0,3.505,7.7a.178.178,0,0,0,.2.16Zm0-4.921a1.2,1.2,0,1,0,.008,0Z" transform="translate(5.33 5.101)" fill="#3c3c41"/>
    <path id="Path_85450" data-name="Path 85450" d="M329.728,331.53a4.344,4.344,0,0,0,1.668-1.171,7.643,7.643,0,0,0,1.889-3.319,2.991,2.991,0,0,0,.06-1.461c-.376.026-.748.078-1.115.078a1.445,1.445,0,0,1-1.262-.661.878.878,0,0,1-.125-.7,6.031,6.031,0,0,1,1-2.433,9.533,9.533,0,0,1,.942-.972.459.459,0,0,1,.462-.091,2.915,2.915,0,0,1,2.135,1.832,5.438,5.438,0,0,1,.38,3.146,12.541,12.541,0,0,1-4.218,7.447,5.561,5.561,0,0,1-4.114,1.426,3.237,3.237,0,0,1-1.746-.661.574.574,0,0,1-.238-.661,6.123,6.123,0,0,1,1.884-3.293.774.774,0,0,1,1.141-.052A3.239,3.239,0,0,1,329.728,331.53Z" transform="translate(-313.359 -313.384)" fill="#3c3c41"/>
    <path id="Path_85451" data-name="Path 85451" d="M63.825,152.409c.091-.432.173-.817.251-1.2.03-.147.078-.268.246-.277s.212.117.255.246c.415,1.262.838,2.52,1.249,3.782a.339.339,0,0,1-.043.29.312.312,0,0,1-.268.039c-.886-.285-1.772-.583-2.658-.877-.367-.121-.735-.251-1.1-.372-.143-.048-.29-.1-.277-.277.009-.2.177-.216.328-.246l1.137-.233c-.341-.259-.635-.506-.946-.713a9.091,9.091,0,0,0-6.34-1.513,9.256,9.256,0,0,0-7.248,13,.639.639,0,0,1-.073.726.6.6,0,0,1-.67.177.621.621,0,0,1-.4-.393,10.462,10.462,0,0,1-.89-5.13,10.257,10.257,0,0,1,2.23-5.713,10.128,10.128,0,0,1,6.539-3.833,10.285,10.285,0,0,1,8.155,2.092C63.467,152.106,63.627,152.245,63.825,152.409Z" transform="translate(-46.346 -149.749)" fill="#3c3c41"/>
    <path id="Path_85454" data-name="Path 85454" d="M121,560.575a.455.455,0,0,1,.445-.48.518.518,0,0,1,.51.506.5.5,0,0,1-.488.471A.492.492,0,0,1,121,560.575Z" transform="translate(-117.772 -542.36)" fill="#3c3c41"/>
    <path id="Path_85455" data-name="Path 85455" d="M216.154,610.374a.466.466,0,0,1-.484.467.472.472,0,0,1-.471-.484.455.455,0,0,1,.462-.462A.462.462,0,0,1,216.154,610.374Z" transform="translate(-207.901 -590.007)" fill="#3c3c41"/>
    <path id="Path_85456" data-name="Path 85456" d="M181.387,600.039a.476.476,0,0,1-.048-.951.509.509,0,0,1,.519.471A.456.456,0,0,1,181.387,600.039Z" transform="translate(-175.083 -579.668)" fill="#3c3c41"/>
    <path id="Path_85457" data-name="Path 85457" d="M99.525,532.645a.479.479,0,0,1-.449.506.493.493,0,0,1-.488-.471.47.47,0,0,1,.449-.5A.475.475,0,0,1,99.525,532.645Z" transform="translate(-96.328 -515.65)" fill="#3c3c41"/>
    <path id="Path_85458" data-name="Path 85458" d="M149.1,583.078a.45.45,0,0,1,.445-.48.48.48,0,1,1,.035.959A.487.487,0,0,1,149.1,583.078Z" transform="translate(-144.658 -563.892)" fill="#3c3c41"/>
    <path id="Path_85459" data-name="Path 85459" d="M251.471,614.428a.442.442,0,0,1-.471-.449.45.45,0,0,1,.467-.48.475.475,0,0,1,.488.467A.455.455,0,0,1,251.471,614.428Z" transform="translate(-242.155 -593.456)" fill="#3c3c41"/>
  </g>
</svg>
