<svg xmlns="http://www.w3.org/2000/svg" width="21.217" height="23.822" viewBox="0 0 21.217 23.822">
  <g id="document-svgrepo-com" transform="translate(-6.583 -2.583)">
    <path id="Path_86853" data-name="Path 86853" d="M31.136,15.05c.411,0,.5-.106.5-.517v-3.3c0-.411-.086-.651-.5-.651H22.459c-.411,0-.876.24-.876.651v3.3c0,.411.092.517.5.517Zm-8.809-3.722h8.561v2.978H22.327Z" transform="translate(-9.417 -5.022)" fill="#3c3c41"/>
    <path id="Path_86854" data-name="Path 86854" d="M27.337,6.411,24.275,3.191a1.73,1.73,0,0,0-1.066-.608H10.624c-.822,0-1.435,1.011-1.435,1.833v20.5H8.072V12.943a.744.744,0,1,0-1.489,0V25.971c0,.411.457.434.869.434H26.257c.822,0,1.542-.322,1.542-1.145V7.463A1.516,1.516,0,0,0,27.337,6.411Zm-1.321.639H23.333v-2.5ZM13.035,24.916H10.677V4.072H22.594L22.588,7.36c0,.206.291.434.5.434h3.226V24.916Z" fill="#3c3c41"/>
    <path id="Path_86855" data-name="Path 86855" d="M27.011,26.583H23.289a.372.372,0,0,0,0,.744h3.722a.372.372,0,0,0,0-.744Z" transform="translate(-10.254 -15.067)" fill="#3c3c41"/>
    <path id="Path_86856" data-name="Path 86856" d="M42.128,26.583H37.289a.372.372,0,0,0,0,.744h4.839a.372.372,0,0,0,0-.744Z" transform="translate(-19.043 -15.067)" fill="#3c3c41"/>
    <path id="Path_86857" data-name="Path 86857" d="M23.289,32.327h1.489a.372.372,0,1,0,0-.744H23.289a.372.372,0,0,0,0,.744Z" transform="translate(-10.254 -18.206)" fill="#3c3c41"/>
    <path id="Path_86858" data-name="Path 86858" d="M34.267,31.955a.372.372,0,0,0-.372-.372H31.289a.372.372,0,0,0,0,.744h2.606A.372.372,0,0,0,34.267,31.955Z" transform="translate(-15.276 -18.206)" fill="#3c3c41"/>
    <path id="Path_86859" data-name="Path 86859" d="M26.267,36.583H23.289a.372.372,0,0,0,0,.744h2.978a.372.372,0,1,0,0-.744Z" transform="translate(-10.254 -21.345)" fill="#3c3c41"/>
    <path id="Path_86860" data-name="Path 86860" d="M40.873,36.583H35.289a.372.372,0,0,0,0,.744h5.583a.372.372,0,0,0,0-.744Z" transform="translate(-17.788 -21.345)" fill="#3c3c41"/>
    <path id="Path_86861" data-name="Path 86861" d="M45.895,31.583H43.289a.372.372,0,1,0,0,.744h2.606a.372.372,0,1,0,0-.744Z" transform="translate(-22.81 -18.206)" fill="#3c3c41"/>
    <path id="Path_86862" data-name="Path 86862" d="M37.895,56.583H35.289a.372.372,0,0,0,0,.744h2.606a.372.372,0,0,0,0-.744Z" transform="translate(-17.788 -33.9)" fill="#3c3c41"/>
    <path id="Path_86863" data-name="Path 86863" d="M45.267,51.583H42.289a.372.372,0,0,0,0,.744h2.978a.372.372,0,0,0,0-.744Z" transform="translate(-22.182 -30.761)" fill="#3c3c41"/>
    <path id="Path_86864" data-name="Path 86864" d="M22.917,51.955a.372.372,0,0,0,.372.372h5.583a.372.372,0,1,0,0-.744H23.289A.372.372,0,0,0,22.917,51.955Z" transform="translate(-10.254 -30.761)" fill="#3c3c41"/>
    <path id="Path_86865" data-name="Path 86865" d="M25.895,56.583H23.289a.372.372,0,0,0,0,.744h2.606a.372.372,0,0,0,0-.744Z" transform="translate(-10.254 -33.9)" fill="#3c3c41"/>
    <path id="Path_86866" data-name="Path 86866" d="M23.289,42.327h2.233a.372.372,0,0,0,0-.744H23.289a.372.372,0,0,0,0,.744Z" transform="translate(-10.254 -24.483)" fill="#3c3c41"/>
    <path id="Path_86867" data-name="Path 86867" d="M39.617,41.583H33.289a.372.372,0,0,0,0,.744h6.328a.372.372,0,1,0,0-.744Z" transform="translate(-16.532 -24.483)" fill="#3c3c41"/>
    <path id="Path_86868" data-name="Path 86868" d="M28.128,46.583H23.289a.372.372,0,0,0,0,.744h4.839a.372.372,0,1,0,0-.744Z" transform="translate(-10.254 -27.622)" fill="#3c3c41"/>
    <path id="Path_86869" data-name="Path 86869" d="M44.011,46.583H40.289a.372.372,0,0,0,0,.744h3.722a.372.372,0,0,0,0-.744Z" transform="translate(-20.926 -27.622)" fill="#3c3c41"/>
  </g>
</svg>
