<svg xmlns="http://www.w3.org/2000/svg" xmlns:xlink="http://www.w3.org/1999/xlink" width="32.941" height="36.259" viewBox="0 0 32.941 36.259">
  <defs>
    <clipPath id="clip-path">
      <rect id="Rectangle_1966" data-name="Rectangle 1966" width="32.941" height="36.259" fill="#00e487"/>
    </clipPath>
  </defs>
  <g id="Group_4594" data-name="Group 4594" transform="translate(0 0)">
    <g id="Group_4593" data-name="Group 4593" transform="translate(0 0)" clip-path="url(#clip-path)">
      <path id="Path_86996" data-name="Path 86996" d="M108.989,0c.439.037.879.061,1.317.113A9.48,9.48,0,0,1,114.5,1.5a4.194,4.194,0,0,1,1.9,2.533,3.114,3.114,0,0,1,.1.625,18.508,18.508,0,0,1-.034,3.06.245.245,0,0,0,.044.163,2.323,2.323,0,0,1-.19,3.2,2.561,2.561,0,0,1-2.625.775,2.217,2.217,0,0,1-.584-.281,9.962,9.962,0,0,0-2.934-1.347,6.542,6.542,0,0,0-4.483.5,9.667,9.667,0,0,0-1.424.789,2.458,2.458,0,0,1-2.912-.079,2.47,2.47,0,0,1-1.144-2.216,2.2,2.2,0,0,1,.486-1.266.438.438,0,0,0,.086-.363,15.532,15.532,0,0,1,0-3.113,3.783,3.783,0,0,1,1.45-2.589A7.625,7.625,0,0,1,105.344.4a12.681,12.681,0,0,1,2.579-.369c.1,0,.2-.022.3-.033Zm-.362,5.391h0c-.78,0-1.56-.01-2.339.007a1.556,1.556,0,0,0-.643.145,1.191,1.191,0,0,0-.576,1.378,1.157,1.157,0,0,0,1.138.889q2.421.006,4.842,0a1.165,1.165,0,0,0,.252-.026,1.2,1.2,0,0,0,.917-1.334,1.166,1.166,0,0,0-1.161-1.057c-.81-.007-1.62,0-2.43,0" transform="translate(-92.156 0.001)" fill="#1ecbd0"/>
      <path id="Path_86997" data-name="Path 86997" d="M114.5,139.271a11.19,11.19,0,0,0,1.12.242,3.512,3.512,0,0,0,2.609-.716,5.265,5.265,0,0,1,1.9-.91,5.788,5.788,0,0,1,4.893.742,6.051,6.051,0,0,0,1.833.852,3.057,3.057,0,0,0,1.933-.168c.067-.026.133-.055.224-.092.007.092.018.172.02.253a10.516,10.516,0,0,1-1.927,6.594,6.814,6.814,0,0,1-3.72,2.718,5.914,5.914,0,0,1-5.585-1.248,8.959,8.959,0,0,1-2.928-4.732,11,11,0,0,1-.378-3.392c0-.054.007-.108.009-.142" transform="translate(-105.279 -126.593)" fill="#00e487"/>
      <path id="Path_86998" data-name="Path 86998" d="M.723,281.275a4.611,4.611,0,0,0,1.522.562c1.087.239,2.183.412,3.285.548.176.014,1.1.086,2.5.173,0-.04.005-.082.005-.124,0-.466,0-.931,0-1.4a1.015,1.015,0,0,1,.29-.738.357.357,0,0,0,.082-.221q.011-.689,0-1.378a.652.652,0,0,1,.345-.613.225.225,0,0,0,.095-.163q.008-1.8,0-3.591c0-.049-.041-.1-.062-.148A.567.567,0,0,1,8.709,274c-.006-.647,0-1.294,0-1.941,0-.138.052-.2.192-.2.266,0,.532,0,.8,0,.13,0,.184.054.184.185,0,.659,0,1.318,0,1.977,0,.041,0,.107-.026.118-.169.083-.114.234-.115.363,0,1.131,0,2.261,0,3.392a.228.228,0,0,0,.122.232.61.61,0,0,1,.3.566c0,.46-.006.919,0,1.378a.4.4,0,0,0,.1.245.921.921,0,0,1,.266.654q0,.807,0,1.614v.116c2.578.13,5.824.244,8.94.218.841-.03,1.683-.053,2.523-.094a57.288,57.288,0,0,0,7.961-.832c.468-.089.93-.212,1.394-.323a1.949,1.949,0,0,0,.223-.074,1.9,1.9,0,0,0,1.374-1.338v-.58c-.036-.305-.073-.61-.108-.916a9.529,9.529,0,0,0-2.426-5.418,16.577,16.577,0,0,0-3.274-2.681,32.2,32.2,0,0,0-4.713-2.433c-.1-.043-.134,0-.2.057a16.569,16.569,0,0,1-1.29,1.217,6.867,6.867,0,0,1-6.031,1.4,7.529,7.529,0,0,1-4.148-2.568c-.09-.108-.157-.144-.3-.077-.468.225-.945.43-1.418.646a22.777,22.777,0,0,0-5.453,3.411A9.7,9.7,0,0,0,.1,278.85c-.031.3-.068.6-.1.9v.508a1.67,1.67,0,0,0,.723,1.02M25.4,271.961l.038.013-1.4,3.811h2.28L22.361,281.2l-.034-.016,1.523-4.02H21.593l3.8-5.207" transform="translate(0 -246.662)" fill="#00e487"/>
    </g>
  </g>
</svg>
