<svg xmlns="http://www.w3.org/2000/svg" width="37.857" height="49.271" viewBox="0 0 37.857 49.271">
  <g id="profile-user-svgrepo-com" transform="translate(0.25 0.25)">
    <g id="Group_3552" data-name="Group 3552" transform="translate(9.858 6.226)">
      <g id="Group_3551" data-name="Group 3551">
        <path id="Path_86546" data-name="Path 86546" d="M172.224,65.362a8.82,8.82,0,1,0,8.82,8.82A8.83,8.83,0,0,0,172.224,65.362Zm0,16.084a7.264,7.264,0,1,1,7.264-7.264A7.272,7.272,0,0,1,172.224,81.446Z" transform="translate(-163.404 -65.362)" fill="#3c3c41" stroke="#3c3c41" stroke-width="0.5"/>
      </g>
    </g>
    <g id="Group_3554" data-name="Group 3554" transform="translate(16.344 15.55)">
      <g id="Group_3553" data-name="Group 3553">
        <path id="Path_86547" data-name="Path 86547" d="M235.656,163.3a.779.779,0,0,0-1,.454.909.909,0,0,1-1.656,0,.778.778,0,1,0-1.457.548,2.464,2.464,0,0,0,4.57,0A.779.779,0,0,0,235.656,163.3Z" transform="translate(-231.49 -163.247)" fill="#3c3c41" stroke="#3c3c41" stroke-width="0.5"/>
      </g>
    </g>
    <g id="Group_3556" data-name="Group 3556" transform="translate(4.238 25.423)">
      <g id="Group_3555" data-name="Group 3555" transform="translate(0)">
        <path id="Path_86548" data-name="Path 86548" d="M133.269,278.394a14.791,14.791,0,0,0-28.841,0,.778.778,0,0,0,.587.931.791.791,0,0,0,.173.019.779.779,0,0,0,.758-.606,13.234,13.234,0,0,1,25.8,0,.778.778,0,0,0,1.518-.345Z" transform="translate(-104.408 -266.893)" fill="#3c3c41" stroke="#3c3c41" stroke-width="0.5"/>
      </g>
    </g>
    <g id="Group_3558" data-name="Group 3558" transform="translate(0)">
      <g id="Group_3557" data-name="Group 3557">
        <path id="Path_86549" data-name="Path 86549" d="M96.493,0h-35.8a.778.778,0,0,0-.778.778V40.21a.778.778,0,0,0,.778.778h35.8a.778.778,0,0,0,.778-.778V.778A.778.778,0,0,0,96.493,0Zm-.778,39.432H61.471V1.556H95.715V39.432Z" transform="translate(-59.915 0)" fill="#3c3c41" stroke="#3c3c41" stroke-width="0.5"/>
      </g>
    </g>
    <g id="Group_3560" data-name="Group 3560" transform="translate(29.574 43.323)">
      <g id="Group_3559" data-name="Group 3559">
        <path id="Path_86550" data-name="Path 86550" d="M377.387,454.809h-6.226a.778.778,0,0,0,0,1.556h6.226a.778.778,0,1,0,0-1.556Z" transform="translate(-370.383 -454.809)" fill="#3c3c41" stroke="#3c3c41" stroke-width="0.5"/>
      </g>
    </g>
    <g id="Group_3562" data-name="Group 3562" transform="translate(0 43.323)">
      <g id="Group_3561" data-name="Group 3561">
        <path id="Path_86551" data-name="Path 86551" d="M87.154,454.809H60.693a.778.778,0,0,0,0,1.556H87.154a.778.778,0,1,0,0-1.556Z" transform="translate(-59.915 -454.809)" fill="#3c3c41" stroke="#3c3c41" stroke-width="0.5"/>
      </g>
    </g>
    <g id="Group_3564" data-name="Group 3564" transform="translate(0 47.215)">
      <g id="Group_3563" data-name="Group 3563">
        <path id="Path_86552" data-name="Path 86552" d="M78.593,495.66h-17.9a.778.778,0,0,0,0,1.557h17.9a.778.778,0,0,0,0-1.557Z" transform="translate(-59.915 -495.66)" fill="#3c3c41" stroke="#3c3c41" stroke-width="0.5"/>
      </g>
    </g>
  </g>
</svg>
