<svg xmlns="http://www.w3.org/2000/svg" xmlns:xlink="http://www.w3.org/1999/xlink" width="48.981" height="59.619" viewBox="0 0 48.981 59.619">
  <defs>
    <clipPath id="clip-path">
      <rect id="Rectangle_1605" data-name="Rectangle 1605" width="15.965" height="17.087" fill="#00e487"/>
    </clipPath>
  </defs>
  <g id="Group_4584" data-name="Group 4584" transform="translate(-309.932 -734.5)">
    <path id="Path_86938" data-name="Path 86938" d="M31.133,58.619H18.584c-5.351,0-9.444,0-13.27,0A5.28,5.28,0,0,1,1.52,57.121,5.389,5.389,0,0,1,.036,53.3C.027,50.893.025,48.45.023,46.087v-.063q0-1.412,0-2.823L0,38.089V34.9C0,27.6.007,20.042.015,12.595A8.956,8.956,0,0,1,.9,9.4a4.56,4.56,0,0,1,3.77-2.316c.5-.038,1.051-.056,1.728-.056.374,0,.754.005,1.121.01.283,0,.566.008.848.009h.021a.791.791,0,0,0,.79-.406,3.8,3.8,0,0,1,3.372-1.806c.447-.006.976-.011,1.52-.011s1.03.006,1.486.018h.054c.381,0,.511-.127.557-.542a4.907,4.907,0,0,1,1.5-3.075A4.628,4.628,0,0,1,20.779,0H20.9a4.633,4.633,0,0,1,4.6,4.175c.072.57.277.67.679.67l.125,0c.309-.013.644-.02,1.053-.02.249,0,.5,0,.744,0s.519,0,.78,0h.142a3.879,3.879,0,0,1,3.495,1.832.744.744,0,0,0,.722.388h.029c.569-.01,1.149-.015,1.722-.015.5,0,1.01,0,1.515.011a5.051,5.051,0,0,1,5.133,5.2c.006,6.947,0,14.009,0,20.84q0,1.275,0,2.55v.351l-1.122-.611-.966.687,0-1.528q0-4.255,0-8.512,0-3.338,0-6.676t0-6.676c0-2.468-1.153-3.628-3.627-3.65l-.345,0-.42,0-.475,0c-.2,0-.373,0-.533,0h-.033a.857.857,0,0,0-.91.7,4.161,4.161,0,0,1-4.251,3.142c-2.549.014-5.218.021-7.933.021-2.652,0-5.455-.007-8.333-.02A4.07,4.07,0,0,1,8.537,9.834a.99.99,0,0,0-1.052-.821q-.06,0-.123,0c-.16.008-.332.012-.543.012l-.391,0h-.04L6,9.023l-.258,0a4.027,4.027,0,0,0-2.41.667l-.622.465a6.624,6.624,0,0,0-.626,3.358c.016,5.748.013,11.593.01,17.246q0,1.893,0,3.777L2.075,44.646c0,1.366,0,2.755,0,4.1v.008c0,1.343,0,2.732,0,4.1,0,2.095.593,2.964,2.528,3.722a1.867,1.867,0,0,0,.718.115c.084,0,.169,0,.251,0s.167,0,.25,0l16.6,0,6.693,0h6.693c.083,0,.167,0,.249,0s.169,0,.253,0a1.872,1.872,0,0,0,.719-.115c1.934-.758,2.525-1.628,2.527-3.722q0-.771,0-1.542l.955.44,1.093-.586q0,.63,0,1.259l0,.877a5.389,5.389,0,0,1-1.484,3.82,5.28,5.28,0,0,1-3.794,1.493h-5.2ZM5.682,57.129h21.26l9.021,0H5.682ZM20.84,3.647a1.624,1.624,0,0,0-1.626,1.566,1.664,1.664,0,0,0,.458,1.2,1.6,1.6,0,0,0,1.146.508h.021a1.675,1.675,0,0,0,1.655-1.576,1.6,1.6,0,0,0-.436-1.171,1.652,1.652,0,0,0-1.18-.531ZM12.9,50.091l-5.56-.079a1.971,1.971,0,0,1-1.88-1.985c-.05-1.9-.048-3.667,0-5.4a1.967,1.967,0,0,1,1.983-1.971c.944-.025,1.877-.037,2.772-.037.917,0,1.825.013,2.7.039a1.948,1.948,0,0,1,1.927,2.012c.02,1.175.017,2.37.014,3.526v.006h0c0,.586,0,1.192,0,1.788v.029A1.869,1.869,0,0,1,12.9,50.091ZM9.43,47.543h0l.051,0a.848.848,0,0,0,.59-.306q.432-.432.867-.861c.555-.55,1.128-1.118,1.685-1.685a1.028,1.028,0,0,0,.344-.722.882.882,0,0,0-.321-.624.861.861,0,0,0-.587-.262,1.023,1.023,0,0,0-.7.344l-.306.3c-.349.342-.71.695-1.048,1.057l-.029.032c-.211.227-.394.424-.611.424-.163,0-.335-.115-.525-.353a.7.7,0,0,0-.555-.283.926.926,0,0,0-.662.32.83.83,0,0,0,.017,1.237c.291.311.6.615.9.909l.237.233a.809.809,0,0,0,.6.239Zm14.772.62H20.885a.892.892,0,1,1,.006-1.782l2.073,0c.744,0,1.422,0,2.073,0a.976.976,0,0,1,.686.235.878.878,0,0,1,.244.658.837.837,0,0,1-.938.887C24.755,48.163,24.478,48.163,24.2,48.163Zm-3.694-3.871h0a.965.965,0,0,1-.5-1.2c.172-.554.653-.628,1.1-.628h.007c1.549,0,2.959,0,4.311,0,1.52,0,2.93,0,4.311,0h.015c.487,0,.964.079,1.16.652s-.174.889-.532,1.154l-4.934.009Zm-7.612-6.7-5.56-.08a1.97,1.97,0,0,1-1.88-1.985c-.049-1.875-.048-3.691,0-5.4a1.965,1.965,0,0,1,1.983-1.97c.953-.025,1.89-.038,2.784-.038.916,0,1.821.013,2.688.039a1.947,1.947,0,0,1,1.927,2.011c.02,1.175.017,2.37.014,3.525,0,.589,0,1.2,0,1.795v.029A1.87,1.87,0,0,1,12.9,37.589ZM9.43,35.04h0l.052,0a.846.846,0,0,0,.588-.306q.433-.432.868-.862c.555-.55,1.128-1.118,1.685-1.684a1.028,1.028,0,0,0,.344-.722.882.882,0,0,0-.321-.624.861.861,0,0,0-.587-.262,1.023,1.023,0,0,0-.7.344l-.312.306c-.347.34-.706.691-1.042,1.052l-.029.031c-.212.227-.394.424-.612.424-.163,0-.335-.115-.525-.353a.7.7,0,0,0-.555-.283.925.925,0,0,0-.662.32.83.83,0,0,0,.017,1.237c.282.3.582.6.872.882l.264.26a.805.805,0,0,0,.594.239Zm14.718.621-1.19,0H20.885a.892.892,0,1,1,.006-1.781l2.073,0,2.073,0a.976.976,0,0,1,.686.235.878.878,0,0,1,.244.658.836.836,0,0,1-.938.887Zm-3.641-3.872h0a.963.963,0,0,1-.5-1.194c.173-.554.653-.629,1.1-.629h.007c1.531,0,2.941,0,4.311,0,1.487,0,2.937,0,4.311-.005h.008c.49,0,.971.079,1.167.653s-.174.889-.532,1.154H30.23Zm12.46-8.226H9.1a2.081,2.081,0,0,1-1.541-.39,2.061,2.061,0,0,1-.38-1.512c0-.64.015-1.291.028-1.921.006-.308.012-.615.017-.921a1.938,1.938,0,0,1,1.91-1.179h.016c3.527.017,7.391.025,12.163.025q3.705,0,7.411,0l3.98,0h.021a3.656,3.656,0,0,1,1.485.24,1.028,1.028,0,0,1,.346.893q0,.409,0,.818c0,.843.01,1.714-.008,2.571A1.323,1.323,0,0,1,33.2,23.556C33.129,23.561,33.053,23.563,32.967,23.563Z" transform="translate(310.432 735)" fill="#00e487" stroke="rgba(0,0,0,0)" stroke-width="1"/>
    <g id="Group_4533" data-name="Group 4533" transform="translate(342.948 769.836)">
      <g id="Group_3662" data-name="Group 3662" clip-path="url(#clip-path)">
        <path id="Path_86667" data-name="Path 86667" d="M167.923,6.731c-.036.341-.068.682-.109,1.022a12.183,12.183,0,0,1-.981,3.578.289.289,0,1,1-.526-.226,11.605,11.605,0,0,0,.889-3.074,13.865,13.865,0,0,0,.1-3.279c-.023-.259-.056-.518-.084-.777-.033-.3-.079-.357-.367-.409a15.792,15.792,0,0,1-3.827-1.208A16.237,16.237,0,0,1,160.227.712c-.254-.186-.281-.176-.546,0-.532.354-1.068.7-1.611,1.038a.433.433,0,0,1-.343.03c-.213-.09-.2-.36.021-.5.385-.244.775-.48,1.158-.726.179-.115.348-.246.523-.368a.827.827,0,0,1,1.052,0,15.911,15.911,0,0,0,3.457,1.943,16.412,16.412,0,0,0,3.112.9.844.844,0,0,1,.729.8c.041.388.076.777.115,1.166.006.058.02.114.031.172Z" transform="translate(-151.958 0.001)" fill="#00e487"/>
        <path id="Path_86668" data-name="Path 86668" d="M293.956,306.659a.519.519,0,0,1-.389.21c-.243.047-.485.1-.727.157a1.554,1.554,0,0,0-1.268,1.3c-.058.272-.119.543-.176.815a.276.276,0,0,1-.289.256c-.168,0-.249-.1-.285-.262-.075-.34-.152-.681-.241-1.017a1.377,1.377,0,0,0-1.038-1.037c-.331-.088-.665-.165-1-.237-.165-.036-.276-.113-.276-.291s.11-.255.276-.291c.341-.074.681-.15,1.017-.242A1.37,1.37,0,0,0,290.576,305c.092-.336.168-.677.242-1.017.036-.165.111-.277.289-.279s.26.107.293.273c.053.267.116.531.172.8a1.571,1.571,0,0,0,1.337,1.315,6.994,6.994,0,0,1,.692.154,1.856,1.856,0,0,1,.355.2Zm-1.538-.108a1.971,1.971,0,0,1-1.31-1.3,1.975,1.975,0,0,1-1.3,1.3,1.987,1.987,0,0,1,1.3,1.3,1.968,1.968,0,0,1,1.305-1.3" transform="translate(-277.991 -292.882)" fill="#00e487"/>
        <path id="Path_86669" data-name="Path 86669" d="M105.14,405.09c-.426-.155-.859-.294-1.278-.467a10.225,10.225,0,0,1-2.808-1.746.287.287,0,0,1-.1-.376.264.264,0,0,1,.329-.142.547.547,0,0,1,.191.123,9.9,9.9,0,0,0,3.669,1.991.635.635,0,0,0,.342,0,9.948,9.948,0,0,0,2.78-1.314l.1-.069a.3.3,0,0,1,.439.045.28.28,0,0,1-.112.423c-.529.313-1.05.645-1.6.911-.487.235-1.013.39-1.521.581a.807.807,0,0,0-.076.038Z" transform="translate(-97.321 -388.003)" fill="#00e487"/>
        <path id="Path_86670" data-name="Path 86670" d="M128.237,162.8a1.115,1.115,0,0,1,.053-.259,1.734,1.734,0,0,1,.939-.941.841.841,0,0,1,.939.247c.287.291.571.586.857.877.217.221.37.221.587,0q1.326-1.352,2.651-2.7a.9.9,0,0,1,1.411,0c.083.084.167.168.249.254a.918.918,0,0,1-.006,1.361q-1.952,2-3.906,3.989a.95.95,0,0,1-.614.32.86.86,0,0,1-.709-.261q-1.1-1.115-2.189-2.236a.918.918,0,0,1-.262-.646" transform="translate(-123.666 -153.982)" fill="#00e487"/>
        <path id="Path_86671" data-name="Path 86671" d="M46.459,19.064a.282.282,0,0,1-.24.291c-.271.061-.542.122-.814.177a1.573,1.573,0,0,0-1.332,1.32c-.055.266-.115.531-.174.8-.042.188-.138.277-.3.269s-.245-.11-.28-.268c-.076-.346-.152-.693-.246-1.034a1.37,1.37,0,0,0-1.02-1.011c-.33-.089-.665-.163-1-.24-.206-.048-.3-.133-.291-.3.007-.189.129-.256.3-.292.329-.07.657-.147.982-.233a1.374,1.374,0,0,0,1.032-1.022c.092-.336.168-.676.242-1.017.036-.165.113-.276.29-.276s.258.109.291.275c.051.261.115.519.169.78a1.575,1.575,0,0,0,1.341,1.331c.267.052.531.116.8.173a.285.285,0,0,1,.249.277m-1.618.034a5.185,5.185,0,0,1-.743-.532,4.893,4.893,0,0,1-.511-.731,1.944,1.944,0,0,1-1.274,1.24,1.989,1.989,0,0,1,1.3,1.3A1.924,1.924,0,0,1,44.841,19.1" transform="translate(-39.314 -15.649)" fill="#00e487"/>
        <path id="Path_86672" data-name="Path 86672" d="M48.326,132.19c.016-.266.027-.532.053-.8a.483.483,0,0,1,.089-.228.254.254,0,0,1,.33-.092.26.26,0,0,1,.176.3,7.267,7.267,0,0,0,.014,2.142,9.611,9.611,0,0,0,.8,3.058,7.912,7.912,0,0,0,4.651,4.281.494.494,0,0,0,.319-.005c.314-.12.621-.26.929-.4.206-.092.365-.063.448.093s.021.326-.195.424c-.339.153-.683.295-1.026.44a.834.834,0,0,1-.639,0,8.59,8.59,0,0,1-5.578-6.243,12.471,12.471,0,0,1-.374-2.973" transform="translate(-46.603 -126.375)" fill="#00e487"/>
        <path id="Path_86673" data-name="Path 86673" d="M0,106.363c.047-.614.091-1.228.142-1.842.017-.21.162-.342.33-.317s.265.169.24.387a13.7,13.7,0,0,0,.558,6.052,10.022,10.022,0,0,0,.915,1.978c.037.061.076.12.11.183a.3.3,0,0,1-.09.419.273.273,0,0,1-.395-.117c-.245-.439-.5-.874-.708-1.331a12.218,12.218,0,0,1-1.04-4.4c-.01-.172-.024-.343-.029-.515s0-.332,0-.5l-.032,0" transform="translate(0 -100.486)" fill="#00e487"/>
        <path id="Path_86674" data-name="Path 86674" d="M367.185,126.763a11.651,11.651,0,0,1-.637,3.852c-.075.221-.246.309-.42.221-.141-.071-.177-.2-.126-.4.157-.606.334-1.208.456-1.822a9.473,9.473,0,0,0,.149-2.424.882.882,0,0,0-.142-.365.318.318,0,0,1,.016-.391.28.28,0,0,1,.4,0,.885.885,0,0,1,.3.676c.006.219,0,.439,0,.658" transform="translate(-352.933 -120.879)" fill="#00e487"/>
        <path id="Path_86675" data-name="Path 86675" d="M210.856,55.433a2.467,2.467,0,0,1,.438.178,18.056,18.056,0,0,0,2.393,1.272c.2.088.278.242.209.405s-.245.223-.454.114q-1.193-.623-2.377-1.264a.482.482,0,0,0-.4-.085.271.271,0,0,1-.346-.2.283.283,0,0,1,.2-.349,3.245,3.245,0,0,1,.337-.075" transform="translate(-202.814 -53.457)" fill="#00e487"/>
        <path id="Path_86676" data-name="Path 86676" d="M331.229,110.143c0,.242-.163.382-.336.338a3.335,3.335,0,0,1-.486-.164.28.28,0,0,1,.163-.533,2.28,2.28,0,0,1,.5.169c.08.04.126.151.157.191" transform="translate(-318.459 -105.862)" fill="#00e487"/>
        <path id="Path_86677" data-name="Path 86677" d="M70.793,369.258a1.043,1.043,0,0,1,.218.125,2.827,2.827,0,0,1,.275.324.275.275,0,0,1-.042.4.289.289,0,0,1-.387-.025,1.743,1.743,0,0,1-.291-.355.369.369,0,0,1,0-.293c.036-.075.147-.114.228-.171" transform="translate(-68.021 -356.094)" fill="#00e487"/>
      </g>
    </g>
  </g>
</svg>
