<svg xmlns="http://www.w3.org/2000/svg" xmlns:xlink="http://www.w3.org/1999/xlink" width="220.046" height="220.009" viewBox="0 0 220.046 220.009">
  <defs>
    <linearGradient id="linear-gradient" x1="0.501" y1="0.035" x2="0.501" y2="1.023" gradientUnits="objectBoundingBox">
      <stop offset="0" stop-color="#3f58a7"/>
      <stop offset="1" stop-color="#3f58a7" stop-opacity="0"/>
    </linearGradient>
  </defs>
  <g id="Group_4586" data-name="Group 4586" transform="translate(3905 -5549.775)">
    <path id="Path_86944" data-name="Path 86944" d="M37.6,0H182.445a37.6,37.6,0,0,1,37.6,37.6V182.445a37.594,37.594,0,0,1-37.6,37.565H37.594A37.594,37.594,0,0,1,0,182.445V37.6A37.6,37.6,0,0,1,37.6,0Z" transform="translate(-3905 5549.775)" fill="#3c3c41"/>
    <rect id="Rectangle_1950" data-name="Rectangle 1950" width="12.626" height="12.626" rx="1.3" transform="translate(-3797.067 5626.946)" fill="#42ba85"/>
    <path id="Path_86945" data-name="Path 86945" d="M260.666,204.309c0-2.907-.051-5.088,0-7.269a1.635,1.635,0,0,0-1.33-1.955c-5.982-1.933-11.928-3.976-17.9-5.931a2.814,2.814,0,0,0-1.643,0c-6.011,1.963-12,3.983-18.019,5.939a1.454,1.454,0,0,0-1.163,1.737c.174,3.634.211,7.2.429,10.8a37.863,37.863,0,0,0,.85,7.152c1.824,7.007,6.869,11.194,12.989,14.472,3.976,2.137,7.77,2.311,11.63-.087.632-.393,1.352-.632,1.984-1.025,5.234-3.278,9.493-7.45,10.9-13.672A83.324,83.324,0,0,0,260.666,204.309Z" transform="translate(-4048.639 5406.138)" fill-rule="evenodd" fill="url(#linear-gradient)"/>
    <path id="Path_86946" data-name="Path 86946" d="M162.4,234.774c0-.625.269-.894.894-.894h18.993c15.948,0,29.482,10.125,29.482,31.365S198.235,296.6,182.287,296.6H163.294c-.625,0-.894-.269-.894-.894Zm11.288,9.5v41.933h8.046c10.663,0,18.368-6.629,18.368-20.963s-7.7-20.97-18.368-20.97Z" transform="translate(-4032.75 5393.888)" fill="#fff"/>
    <path id="Path_86947" data-name="Path 86947" d="M240.3,234.774c0-.625.269-.894.894-.894h9.5c.625,0,.894.269.894.894v60.934c0,.625-.269.894-.894.894h-9.5c-.625,0-.894-.269-.894-.894Z" transform="translate(-4054.027 5393.888)" fill="#fff"/>
    <path id="Path_86948" data-name="Path 86948" d="M322.538,263.382c.625,0,.894.269.894.894v15.5a6.607,6.607,0,0,1-.894,3.4,30.351,30.351,0,0,1-25.629,13.978c-16.718,0-31.088-10.75-31.088-32.251,0-21.152,14.785-32.259,29.838-32.259,13.614,0,25.084,7.7,26.894,20.069,0,.727-.269.894-.989.894h-9.42a1.047,1.047,0,0,1-1.076-.894c-2.42-7.08-8.337-9.675-15.41-9.675-9.05,0-18.172,7.349-18.172,21.864,0,13.883,8,21.857,18.55,21.857,7.269,0,12.72-2.508,16.129-7.7v-5.284h-16.6c-.625,0-.894-.269-.894-.894v-8.606c0-.625.269-.894.894-.894Z" transform="translate(-4060.997 5394.224)" fill="#fff"/>
    <path id="Path_86949" data-name="Path 86949" d="M354.94,234.774c0-.625.269-.894.894-.894h9.5c.625,0,.894.269.894.894v60.934c0,.625-.269.894-.894.894h-9.5c-.625,0-.894-.269-.894-.894Z" transform="translate(-4085.338 5393.888)" fill="#fff"/>
    <path id="Path_86950" data-name="Path 86950" d="M262.279,202.03c-.167,4.921,0,9.871-1.963,14.537-3.78,9.021-10.758,14.058-20.142,15.8-1.744.327-3.838-.356-5.575-1.054-8.265-3.344-14.37-8.846-16.769-17.736a27.856,27.856,0,0,1-.821-6.019c-.2-4.514-.211-9.035-.363-13.549a1.621,1.621,0,0,1,1.33-1.948c6.854-2.181,13.665-4.5,20.52-6.716a3.677,3.677,0,0,1,2.181,0c6.833,2.181,13.643,4.485,20.476,6.694a1.454,1.454,0,0,1,1.185,1.708C262.228,196.542,262.279,199.282,262.279,202.03Zm-2.7,1.229c0-2.908-.051-5.088,0-7.269a1.635,1.635,0,0,0-1.33-1.955c-5.982-1.933-11.928-3.976-17.9-5.931a2.813,2.813,0,0,0-1.643,0c-6.011,1.963-12,3.983-18.019,5.939a1.454,1.454,0,0,0-1.163,1.737c.174,3.634.211,7.2.429,10.8a37.863,37.863,0,0,0,.85,7.152c1.824,7.007,6.869,11.194,12.989,14.472,3.976,2.137,7.77,2.311,11.63-.087.632-.393,1.352-.632,1.984-1.025,5.233-3.278,9.493-7.45,10.9-13.672A83.3,83.3,0,0,0,259.582,203.258Z" transform="translate(-4047.556 5407.189)" fill="#fff" fill-rule="evenodd"/>
    <rect id="Rectangle_1951" data-name="Rectangle 1951" width="11.557" height="11.557" transform="translate(-3813.857 5610.258)" fill="#fff"/>
    <rect id="Rectangle_1952" data-name="Rectangle 1952" width="6.862" height="6.862" transform="translate(-3802.301 5603.396)" fill="#fff"/>
    <rect id="Rectangle_1953" data-name="Rectangle 1953" width="4.47" height="4.47" transform="translate(-3795.446 5610.258)" fill="#fff"/>
    <path id="Path_86951" data-name="Path 86951" d="M171.163,334.72c5.619,0,9.239,3.634,9.348,7.574,0,.254-.109.363-.356.363h-3.845c-.254,0-.327-.109-.363-.363-.363-2.246-2.319-3.373-4.855-3.373-2.355,0-4.238.909-4.238,2.791,0,2.137,2.791,3.118,6.019,4.027,4.31,1.192,8.4,3,8.4,7.029,0,5.139-3.874,8.039-9.784,8.039-5.648,0-9.784-3.838-9.82-8.548,0-.254.109-.363.363-.363h3.809c.247,0,.32.109.356.363.254,2.907,2.391,4.361,5.51,4.361s5-1.374,5-3.373c0-1.81-2.282-2.966-5.764-3.838-5.43-1.374-8.657-3.3-8.657-7.465C162.288,337.293,166.562,334.72,171.163,334.72Z" transform="translate(-4032.551 5366.346)" fill="#fff"/>
    <path id="Path_86952" data-name="Path 86952" d="M207.365,360.217c0,.254-.109.363-.363.363h-3.845c-.247,0-.356-.109-.356-.363V335.583c0-.254.109-.363.356-.363H207c.254,0,.363.109.363.363v9.653h10.5v-9.653c0-.254.109-.363.363-.363h3.838c.254,0,.363.109.363.363v24.634c0,.254-.109.363-.363.363h-3.86c-.254,0-.363-.109-.363-.363V349.459H207.365Z" transform="translate(-4043.784 5366.209)" fill="#fff"/>
    <path id="Path_86953" data-name="Path 86953" d="M245.16,335.583c0-.254.109-.363.363-.363H249.4c.247,0,.356.109.356.363v24.634c0,.254-.109.363-.356.363H245.56c-.254,0-.363-.109-.363-.363Z" transform="translate(-4055.355 5366.209)" fill="#fff"/>
    <path id="Path_86954" data-name="Path 86954" d="M271.465,356.379h11.957c.247,0,.356.109.356.363v3.474c0,.254-.109.363-.356.363H267.256c-.247,0-.356-.109-.356-.363V335.583c0-.254.109-.363.356-.363h15.62c.254,0,.363.109.363.363v3.474c0,.254-.109.363-.363.363H271.465v5.728h10.322c.254,0,.363.109.363.363v3.474c0,.255-.109.364-.363.364H271.465Z" transform="translate(-4061.292 5366.209)" fill="#fff"/>
    <path id="Path_86955" data-name="Path 86955" d="M304.88,335.583c0-.254.109-.363.363-.363h3.838c.254,0,.363.109.363.363v20.8H321.8c.247,0,.356.109.356.364v3.474c0,.254-.109.363-.356.363H305.243c-.254,0-.363-.109-.363-.363Z" transform="translate(-4071.666 5366.209)" fill="#fff"/>
    <path id="Path_86956" data-name="Path 86956" d="M343,335.583c0-.254.109-.363.363-.363h7.676c6.455,0,11.921,4.092,11.921,12.684s-5.466,12.677-11.921,12.677h-7.668c-.254,0-.363-.109-.363-.363Zm4.565,3.838v16.958h3.264c4.31,0,7.421-2.682,7.421-8.475s-3.1-8.483-7.414-8.483Z" transform="translate(-4082.077 5366.209)" fill="#fff"/>
    <path id="Path_86957" data-name="Path 86957" d="M291.75,200c3.147,0,5.183,2.035,5.241,4.245,0,.145-.058.2-.2.2h-2.181c-.138,0-.174-.058-.2-.2-.211-1.258-1.3-1.89-2.726-1.89s-2.377.509-2.377,1.57c0,1.2,1.563,1.745,3.373,2.253,2.42.669,4.717,1.686,4.717,3.94,0,2.907-2.181,4.514-5.5,4.514-3.162,0-5.481-2.181-5.5-4.8,0-.138.058-.2.2-.2h2.137c.138,0,.182.065.2.2.138,1.65,1.337,2.442,3.089,2.442s2.8-.771,2.8-1.89-1.272-1.665-3.227-2.181c-3.053-.778-4.863-1.854-4.863-4.194C286.763,201.454,289.169,200,291.75,200Z" transform="translate(-4066.617 5403.142)" fill="#fff"/>
    <path id="Path_86958" data-name="Path 86958" d="M303.41,200.514c0-.145.058-.2.2-.2h2.319c.145,0,.2.058.2.2v2.319c0,.138-.058.2-.2.2h-2.319c-.145,0-.2-.065-.2-.2Zm.138,4.027c0-.145.065-.2.211-.2h2.035c.138,0,.2.058.2.2v9.791c0,.145-.058.211-.2.211h-2.035c-.145,0-.211-.065-.211-.211Z" transform="translate(-4071.264 5403.057)" fill="#fff"/>
    <path id="Path_86959" data-name="Path 86959" d="M309.792,216.7c0-.145.065-.2.2-.2h2.035c.145,0,.182.058.2.2.2.974,1.119,1.3,2.108,1.3,1.672,0,2.421-1.054,2.421-2.682v-.363a3.867,3.867,0,0,1-2.762.974c-2.842,0-4.761-2.115-4.761-5.183s1.919-5.183,4.681-5.183a4.078,4.078,0,0,1,2.842,1.01v-.6c0-.145.065-.2.2-.2H319c.138,0,.2.058.2.2v8.984c0,3.533-1.788,5.241-4.979,5.241C311.973,220.2,310.025,218.9,309.792,216.7Zm4.616-8.941c-1.585,0-2.559,1.279-2.559,2.988s.974,2.987,2.559,2.987,2.522-1.279,2.522-2.987-.909-2.988-2.493-2.988Z" transform="translate(-4072.857 5401.623)" fill="#fff"/>
    <path id="Path_86960" data-name="Path 86960" d="M326.41,205.977c0-.145.058-.2.2-.2h2.028c.145,0,.2.058.2.2v.727a4.571,4.571,0,0,1,3.075-1.134A3.248,3.248,0,0,1,335.474,209v6.767c0,.145-.058.211-.2.211h-2.035c-.138,0-.2-.065-.2-.211V209.88c0-1.526-.625-2.115-1.744-2.115-1.279,0-2.442.974-2.442,3.387v4.616c0,.145-.058.211-.2.211h-2.028c-.145,0-.2-.065-.2-.211Z" transform="translate(-4077.546 5401.621)" fill="#fff"/>
    <path id="Path_86961" data-name="Path 86961" d="M341.62,200.514c0-.145.065-.2.211-.2h2.319c.138,0,.2.058.2.2v2.319a.174.174,0,0,1-.2.2h-2.319c-.145,0-.211-.065-.211-.2Zm.153,4.027c0-.145.058-.2.2-.2H344c.145,0,.2.058.2.2v9.791c0,.145-.058.211-.2.211h-2.028c-.145,0-.2-.065-.2-.211Z" transform="translate(-4081.7 5403.057)" fill="#fff"/>
    <path id="Path_86962" data-name="Path 86962" d="M351.107,206.456v7.8c0,.145-.065.211-.211.211h-2.028c-.145,0-.2-.065-.2-.211v-7.8h-1.621c-.145,0-.2-.065-.2-.2v-1.788c0-.145.058-.2.2-.2h1.621v-.879a3.063,3.063,0,0,1,3.315-3.351,5.488,5.488,0,0,1,2.108.429c.167.058.167.16.167.342v1.752c0,.1-.044.16-.124.16a.312.312,0,0,1-.16-.044,3.875,3.875,0,0,0-1.65-.443c-.792,0-1.214.443-1.214,1.359v.676h2.8c.145,0,.2.058.2.2v1.788c0,.138-.058.2-.2.2Z" transform="translate(-4083.126 5403.133)" fill="#fff"/>
    <path id="Path_86963" data-name="Path 86963" d="M359.7,206.053l2.435,6.4,1.97-6.4c.044-.145.087-.2.269-.2h2.232c.109,0,.167.036.167.138a.4.4,0,0,1,0,.145l-3.758,10.9c-.894,2.595-2.239,3.227-3.583,3.227a4.928,4.928,0,0,1-1.97-.327.313.313,0,0,1-.2-.32v-1.788c0-.145.087-.2.16-.2.327,0,.9.443,1.635.443,1.032,0,1.577-.647,2.028-2.253l-4.1-9.646a.437.437,0,0,1-.044-.16.153.153,0,0,1,.167-.16h2.362C359.6,205.85,359.637,205.908,359.7,206.053Z" transform="translate(-4085.885 5401.544)" fill="#fff"/>
  </g>
</svg>
