<svg xmlns="http://www.w3.org/2000/svg" xmlns:xlink="http://www.w3.org/1999/xlink" width="226" height="226" viewBox="0 0 226 226">
  <defs>
    <linearGradient id="linear-gradient" x1="0.5" y1="0.036" x2="0.5" y2="1.023" gradientUnits="objectBoundingBox">
      <stop offset="0" stop-color="#1c4698"/>
      <stop offset="1" stop-color="#1c4698" stop-opacity="0"/>
    </linearGradient>
  </defs>
  <g id="Group_4590" data-name="Group 4590" transform="translate(3859 -5475.732)">
    <rect id="Rectangle_1954" data-name="Rectangle 1954" width="226" height="226" rx="43" transform="translate(-3859 5475.732)" fill="#fff"/>
    <path id="Path_86964" data-name="Path 86964" d="M744.445,204.718c0-2.96-.056-5.224.025-7.481a1.681,1.681,0,0,0-1.364-2.011c-6.146-1.982-12.251-4.078-18.389-6.093a2.9,2.9,0,0,0-1.685,0c-6.178,2.014-12.332,4.095-18.514,6.1a1.5,1.5,0,0,0-1.19,1.79c.173,3.7.213,7.4.438,11.089a38.91,38.91,0,0,0,.869,7.352c1.874,7.2,7.063,11.5,13.345,14.866,4.086,2.192,7.984,2.374,11.962-.093.647-.4,1.392-.647,2.039-1.054,5.377-3.367,9.753-7.65,11.189-14.045A93.706,93.706,0,0,0,744.445,204.718Z" transform="translate(-4483.232 5333.335)" fill-rule="evenodd" fill="url(#linear-gradient)"/>
    <path id="Path_86965" data-name="Path 86965" d="M645.06,234.8c0-.644.276-.92.92-.92h19.512c16.382,0,30.28,10.4,30.28,32.213s-13.9,32.213-30.28,32.213H645.98c-.644,0-.92-.275-.92-.92Zm11.6,9.756v43.073h8.283c10.953,0,18.868-6.81,18.868-21.536s-7.915-21.536-18.868-21.536Z" transform="translate(-4468.471 5321.965)" fill="#373839"/>
    <path id="Path_86966" data-name="Path 86966" d="M722.965,234.8c0-.644.276-.92.921-.92h9.756c.644,0,.921.276.921.92v62.586c0,.644-.276.92-.921.92h-9.756c-.644,0-.921-.275-.921-.92Z" transform="translate(-4488.208 5321.965)" fill="#373839"/>
    <path id="Path_86967" data-name="Path 86967" d="M806.742,264.218c.644,0,.921.276.921.92V281.06a6.786,6.786,0,0,1-.921,3.5,31.179,31.179,0,0,1-26.322,14.358c-17.211,0-31.937-11.044-31.937-33.133,0-21.721,15.185-33.133,30.648-33.133,13.99,0,25.771,7.915,27.611,20.617,0,.736-.276.92-1.012.92h-9.664a1.077,1.077,0,0,1-1.1-.92c-2.485-7.271-8.56-9.94-15.83-9.94-9.3,0-18.683,7.547-18.683,22.457,0,14.266,8.192,22.457,19.052,22.457,7.455,0,13.069-2.577,16.567-7.915v-5.43H779.039c-.644,0-.921-.276-.921-.92v-8.836c0-.644.276-.92.921-.92Z" transform="translate(-4494.673 5322.278)" fill="#373839"/>
    <path id="Path_86968" data-name="Path 86968" d="M837.606,234.8c0-.644.276-.92.921-.92h9.756c.644,0,.921.276.921.92v62.586c0,.644-.276.92-.921.92h-9.756c-.644,0-.921-.275-.921-.92Z" transform="translate(-4517.252 5321.965)" fill="#373839"/>
    <path id="Path_86969" data-name="Path 86969" d="M746.2,202.5c-.172,5.056,0,10.143-2.019,14.958-3.877,9.263-11.044,14.435-20.69,16.229-1.79.334-3.942-.362-5.728-1.082-8.483-3.435-14.761-9.086-17.223-18.216a29.042,29.042,0,0,1-.844-6.182c-.209-4.637-.214-9.283-.374-13.921a1.669,1.669,0,0,1,1.368-2c7.039-2.253,14.041-4.626,21.076-6.9a3.806,3.806,0,0,1,2.212.024c7.022,2.265,14.013,4.609,21.032,6.878a1.48,1.48,0,0,1,1.219,1.754C746.141,196.862,746.2,199.682,746.2,202.5Zm-2.767,1.263c0-2.96-.056-5.224.025-7.481a1.681,1.681,0,0,0-1.364-2.011c-6.146-1.982-12.251-4.078-18.389-6.093a2.9,2.9,0,0,0-1.685,0c-6.178,2.014-12.332,4.095-18.514,6.1a1.5,1.5,0,0,0-1.19,1.79c.173,3.7.213,7.4.438,11.089a38.91,38.91,0,0,0,.869,7.352c1.874,7.2,7.063,11.5,13.345,14.866,4.086,2.192,7.984,2.374,11.962-.093.647-.4,1.392-.647,2.039-1.054,5.377-3.367,9.753-7.65,11.189-14.045A93.706,93.706,0,0,0,743.43,203.764Z" transform="translate(-4482.217 5334.29)" fill="#45ad71" fill-rule="evenodd"/>
    <rect id="Rectangle_1955" data-name="Rectangle 1955" width="11.872" height="11.872" transform="translate(-3765.381 5537.86)" fill="#fff"/>
    <rect id="Rectangle_1956" data-name="Rectangle 1956" width="7.045" height="7.045" transform="translate(-3753.509 5530.815)" fill="#fff"/>
    <rect id="Rectangle_1957" data-name="Rectangle 1957" width="4.591" height="4.591" transform="translate(-3746.464 5537.86)" fill="#fff"/>
    <g id="Group_4588" data-name="Group 4588" transform="translate(-3823.95 5631.141)">
      <path id="Path_86970" data-name="Path 86970" d="M654.089,334.723c5.769,0,9.49,3.721,9.6,7.779,0,.261-.112.372-.373.372h-3.945c-.26,0-.335-.111-.372-.372-.373-2.308-2.382-3.461-4.987-3.461-2.419,0-4.354.93-4.354,2.866,0,2.2,2.866,3.2,6.178,4.131,4.429,1.228,8.634,3.089,8.634,7.22,0,5.285-3.982,8.262-10.048,8.262-5.806,0-10.048-3.945-10.086-8.784,0-.261.112-.372.372-.372h3.908c.261,0,.335.111.373.372.261,3.015,2.456,4.466,5.657,4.466,3.164,0,5.136-1.415,5.136-3.461,0-1.861-2.345-3.052-5.918-3.945-5.583-1.414-8.895-3.387-8.895-7.667C644.97,337.365,649.362,334.723,654.089,334.723Z" transform="translate(-644.338 -334.723)" fill="#373839"/>
      <path id="Path_86971" data-name="Path 86971" d="M690.15,360.9c0,.261-.112.372-.373.372h-3.945c-.26,0-.372-.111-.372-.372V335.594c0-.261.112-.373.372-.373h3.945c.261,0,.373.112.373.373v9.936h10.793v-9.936c0-.261.111-.373.372-.373h3.945c.261,0,.372.112.372.373V360.9c0,.261-.111.372-.372.372h-3.945c-.261,0-.372-.111-.372-.372V349.848H690.15Z" transform="translate(-654.756 -334.849)" fill="#373839"/>
      <path id="Path_86972" data-name="Path 86972" d="M727.827,335.594c0-.261.112-.373.373-.373h3.945c.261,0,.372.112.372.373V360.9c0,.261-.112.372-.372.372H728.2c-.261,0-.373-.111-.373-.372Z" transform="translate(-665.49 -334.849)" fill="#373839"/>
      <path id="Path_86973" data-name="Path 86973" d="M754.249,356.956H766.53c.261,0,.373.112.373.373V360.9c0,.261-.112.372-.373.372h-16.6c-.261,0-.373-.111-.373-.372V335.594c0-.261.112-.373.373-.373h16.041c.26,0,.372.112.372.373v3.573c0,.261-.112.373-.372.373H754.249v5.88h10.607c.261,0,.372.111.372.372v3.573c0,.261-.111.372-.372.372H754.249Z" transform="translate(-670.996 -334.849)" fill="#373839"/>
      <path id="Path_86974" data-name="Path 86974" d="M787.541,335.594c0-.261.112-.373.373-.373h3.945c.26,0,.372.112.372.373v21.362h12.691c.261,0,.373.112.373.373V360.9c0,.261-.112.372-.373.372H787.914c-.261,0-.373-.111-.373-.372Z" transform="translate(-680.618 -334.849)" fill="#373839"/>
      <path id="Path_86975" data-name="Path 86975" d="M825.673,335.594c0-.261.112-.373.372-.373h7.891c6.624,0,12.244,4.206,12.244,13.026s-5.62,13.026-12.244,13.026h-7.891c-.26,0-.372-.111-.372-.372Zm4.69,3.945v17.417h3.349c4.429,0,7.63-2.754,7.63-8.709s-3.2-8.708-7.63-8.708Z" transform="translate(-690.279 -334.849)" fill="#373839"/>
    </g>
    <g id="Group_4589" data-name="Group 4589" transform="translate(-3730.805 5530.572)">
      <path id="Path_86976" data-name="Path 86976" d="M774.566,200.03c3.235,0,5.324,2.087,5.381,4.363,0,.146-.057.208-.206.208h-2.215c-.143,0-.182-.062-.208-.208-.211-1.3-1.332-1.943-2.8-1.943-1.357,0-2.44.522-2.44,1.609,0,1.232,1.6,1.794,3.465,2.317,2.485.689,4.844,1.733,4.844,4.05,0,2.966-2.236,4.637-5.64,4.637-3.255,0-5.636-2.214-5.66-4.929,0-.144.064-.209.212-.209h2.193c.144,0,.186.065.21.209.148,1.693,1.378,2.507,3.173,2.507,1.774,0,2.881-.794,2.881-1.942,0-1.045-1.312-1.711-3.318-2.212-3.134-.794-4.992-1.9-4.992-4.3C769.447,201.511,771.914,200.03,774.566,200.03Z" transform="translate(-769.089 -200.03)" fill="#45ad71"/>
      <path id="Path_86977" data-name="Path 86977" d="M786.075,200.518c0-.146.063-.209.211-.209h2.377c.151,0,.211.063.211.209V202.9c0,.144-.06.208-.211.208h-2.377c-.148,0-.211-.063-.211-.208Zm.144,4.134c0-.146.066-.209.211-.209h2.09c.143,0,.206.063.206.209v10.063c0,.147-.063.212-.206.212h-2.09c-.145,0-.211-.065-.211-.212Z" transform="translate(-773.392 -200.101)" fill="#45ad71"/>
      <path id="Path_86978" data-name="Path 86978" d="M792.51,217.009c0-.146.066-.208.212-.208h2.09c.149,0,.189.061.206.208.211,1,1.151,1.336,2.17,1.336,1.715,0,2.485-1.083,2.485-2.755v-.376a3.958,3.958,0,0,1-2.834,1c-2.925,0-4.891-2.171-4.891-5.324s1.966-5.324,4.8-5.324a4.158,4.158,0,0,1,2.922,1.044v-.626c0-.146.065-.209.21-.209h2.091c.143,0,.2.063.2.209v9.229c0,3.632-1.835,5.387-5.112,5.387C794.685,220.6,792.722,219.266,792.51,217.009Zm4.74-9.187c-1.627,0-2.627,1.317-2.627,3.069s1,3.069,2.627,3.069,2.595-1.314,2.595-3.069S798.882,207.822,797.251,207.822Z" transform="translate(-774.88 -201.433)" fill="#45ad71"/>
      <path id="Path_86979" data-name="Path 86979" d="M809.072,205.984c0-.146.061-.209.211-.209h2.085c.151,0,.208.063.208.209v.751a4.679,4.679,0,0,1,3.155-1.169,3.324,3.324,0,0,1,3.653,3.529v6.951c0,.147-.058.212-.208.212h-2.088c-.146,0-.21-.065-.21-.212v-6.053c0-1.569-.646-2.172-1.8-2.172-1.315,0-2.507,1-2.507,3.485v4.74c0,.147-.057.212-.208.212h-2.085c-.15,0-.211-.065-.211-.212Z" transform="translate(-779.219 -201.433)" fill="#45ad71"/>
      <path id="Path_86980" data-name="Path 86980" d="M824.288,200.518c0-.146.067-.209.214-.209h2.378c.147,0,.211.063.211.209V202.9c0,.144-.064.208-.211.208H824.5c-.148,0-.214-.063-.214-.208Zm.152,4.134c0-.146.063-.209.211-.209h2.085c.146,0,.211.063.211.209v10.063c0,.147-.065.212-.211.212H824.65c-.148,0-.211-.065-.211-.212Z" transform="translate(-783.074 -200.101)" fill="#45ad71"/>
      <path id="Path_86981" data-name="Path 86981" d="M833.883,206.627v8.017c0,.147-.06.212-.211.212h-2.088c-.146,0-.209-.065-.209-.212v-8.017h-1.666c-.147,0-.209-.063-.209-.208v-1.838c0-.146.062-.209.209-.209h1.666v-.9a3.151,3.151,0,0,1,3.4-3.446,5.732,5.732,0,0,1,2.171.438c.168.063.168.168.168.357v1.794c0,.1-.04.167-.125.167a.353.353,0,0,1-.168-.043,3.957,3.957,0,0,0-1.691-.458c-.814,0-1.251.458-1.251,1.4v.689h2.881c.149,0,.209.063.209.209v1.838c0,.146-.06.208-.209.208Z" transform="translate(-784.394 -200.03)" fill="#45ad71"/>
      <path id="Path_86982" data-name="Path 86982" d="M842.43,206.055l2.506,6.579,2.024-6.579c.043-.146.083-.209.273-.209h2.294c.108,0,.173.041.173.146a.39.39,0,0,1-.022.148l-3.865,11.212c-.919,2.671-2.3,3.319-3.675,3.319a5.11,5.11,0,0,1-2.027-.333A.334.334,0,0,1,839.9,220v-1.839c0-.145.084-.208.164-.208.334,0,.919.458,1.673.458,1.064,0,1.625-.667,2.088-2.318l-4.221-9.918a.454.454,0,0,1-.043-.166.157.157,0,0,1,.171-.167h2.422C842.326,205.846,842.365,205.909,842.43,206.055Z" transform="translate(-786.945 -201.503)" fill="#45ad71"/>
    </g>
  </g>
</svg>
