<svg xmlns="http://www.w3.org/2000/svg" width="32.57" height="44.471" viewBox="0 0 32.57 44.471">
  <g id="Group_309" data-name="Group 309" transform="translate(0 0)">
    <path id="Path_1566" data-name="Path 1566" d="M178,358.1c-.021,1.306-.188,9.454.17,9.96.4.573,3.717.321,4.694.321H192.9c2.5,0,3.881.39,4-.923l0-9.927a4.015,4.015,0,0,0-.232-2.268,33.8,33.8,0,0,0-4.322-.16l-.039-.41c.357-4.149-1.4-3.5-4.851-3.5-1,0-3.236-.213-4,.249-1.073.648-.863,1.9-.877,3.275l.011.434c-1.266.09-3.272-.273-4.348.116-.478.86-.232,1.7-.236,2.835Zm6.846-3.657.008-.978,5.186-.006.01,1.027c-.043.608.107.549-.247.655l-2.851.03-2.055-.108Z" transform="translate(-171.155 -323.967)" fill="#1ecbd0" fill-rule="evenodd"/>
    <path id="Path_1567" data-name="Path 1567" d="M173.258,357.629c.35.491.663.741.918,1.077.336.278.694.388,1.051.673l1.933.5a11.7,11.7,0,0,1,.308-3.508c.25-.116.559-.881,1.536-1.306a6.7,6.7,0,0,1,2.71-.251,4.056,4.056,0,0,1,2.108-3.477c1.4-.732,3.337-.5,5.036-.5,1.674,0,3.7-.241,5.024.511A4.037,4.037,0,0,1,196,354.811c3.548-.034,4.544.736,4.616,4.288l-.062.618a.426.426,0,0,0,.1.034c.024.005.071.025.1.029l.6-.08c.286-.081.5-.114.8-.2,3.3-.918,3.351-5.318,2.571-7.972a10.746,10.746,0,0,0-9.356-7.723c-.459,4.7-12.633,4.646-13.016-.01a10.7,10.7,0,0,0-9.3,7.545A8.692,8.692,0,0,0,173.258,357.629Z" transform="translate(-172.564 -325.893)" fill="#00e487" fill-rule="evenodd"/>
    <path id="Path_1568" data-name="Path 1568" d="M185.771,329.754c-5.179.99-7.54,5.569-6.32,10.577.892,3.657,4.311,9.448,8.9,8.231,3.4-.9,6.715-6.2,6.77-10.781A8,8,0,0,0,185.771,329.754Z" transform="translate(-170.841 -329.613)" fill="#00e487" fill-rule="evenodd"/>
  </g>
</svg>
