<svg xmlns="http://www.w3.org/2000/svg" viewBox="0 0 41.64 58.62"><defs><style>.cls-1{fill:#00e487;}.cls-2{fill:#fefefe;}.cls-3{fill:none;}</style></defs><g id="Layer_2" data-name="Layer 2"><g id="Layer_1-2" data-name="Layer 1"><polygon class="cls-1" points="5.68 57.13 26.94 57.13 35.96 57.13 5.68 57.13"/><path class="cls-1" d="M41.64,12.24V12a5,5,0,0,0-5.13-5H33.24a.73.73,0,0,1-.72-.38A3.88,3.88,0,0,0,29,4.83H27.36c-.41,0-.75,0-1.06,0h-.12c-.4,0-.61-.11-.68-.68A4.64,4.64,0,0,0,20.9,0h-.12a4.62,4.62,0,0,0-3.11,1.23,4.83,4.83,0,0,0-1.5,3.07c-.05.42-.18.54-.56.54h0l-1.49,0-1.52,0a3.79,3.79,0,0,0-3.37,1.8.79.79,0,0,1-.79.41h-2c-.68,0-1.23,0-1.73,0A4.57,4.57,0,0,0,.9,9.4,9.09,9.09,0,0,0,0,12.6C0,20,0,27.6,0,34.9v3.19L0,43.2v2.89c0,2.36,0,4.8,0,7.21a5.37,5.37,0,0,0,1.48,3.82,5.26,5.26,0,0,0,3.79,1.5h31a5.21,5.21,0,0,0,3.79-1.49A5.37,5.37,0,0,0,41.6,53.3v-.66l0,0V12.24ZM20.84,3.65h0a1.66,1.66,0,0,1,1.18.53,1.6,1.6,0,0,1,.43,1.18,1.67,1.67,0,0,1-1.65,1.57h0a1.61,1.61,0,0,1-1.15-.51,1.66,1.66,0,0,1-.46-1.2A1.63,1.63,0,0,1,20.84,3.65ZM37,56.58a2,2,0,0,1-.72.11h-31a2,2,0,0,1-.72-.11C2.67,55.82,2.07,55,2.07,52.85v-4.1h0v-4.1l0-10.11V30.76c0-5.65,0-11.5,0-17.25a6.67,6.67,0,0,1,.63-3.35l.62-.47A4,4,0,0,1,5.74,9H6.82l.54,0h.12a1,1,0,0,1,1.06.82,4.06,4.06,0,0,0,4.15,3l8.33,0,7.94,0a4.18,4.18,0,0,0,4.25-3.14.84.84,0,0,1,.91-.7h1.8c2.48,0,3.63,1.18,3.63,3.65V52.74h0v.12C39.55,55,39,55.82,37,56.58Z"/><path class="cls-1" d="M15.51,39.49,10,39.41a2,2,0,0,1-1.88-2c-.05-1.87,0-3.69,0-5.4a2,2,0,0,1,2-2h0l2.78,0c.92,0,1.82,0,2.69,0a2,2,0,0,1,1.93,2v0c0,1.17,0,2.37,0,3.52v1.83a1.87,1.87,0,0,1-1.66,2.06h-.3Z"/><path class="cls-1" d="M26.77,37.56H23.5a.9.9,0,0,1-.94-.84.89.89,0,0,1,.85-.94h4.24a1,1,0,0,1,.69.23.86.86,0,0,1,.24.66.82.82,0,0,1-.77.89h-1Z"/><path class="cls-1" d="M23.12,33.69h0a1,1,0,0,1-.5-1.2c.18-.55.66-.63,1.1-.63h8.64c.49,0,1,.08,1.17.65s-.18.89-.53,1.16h-.15Z"/><path class="cls-2" d="M12.76,38.15H10.15c-.25,0-.34,0-.33-.31A5.42,5.42,0,0,1,10,36.19a1.53,1.53,0,0,1,1.61-1.12h2.2a1.74,1.74,0,0,1,1.92,1.83c0,.33,0,.66,0,1s-.07.27-.28.27Z"/><path class="cls-2" d="M14.33,32.91a1.55,1.55,0,1,1-1.54-1.56A1.56,1.56,0,0,1,14.33,32.91Z"/><path class="cls-1" d="M15.51,52,10,51.91a2,2,0,0,1-1.88-2c-.05-1.88,0-3.69,0-5.4a2,2,0,0,1,2-2h0c.95,0,1.89,0,2.78,0s1.82,0,2.69,0a2,2,0,0,1,1.93,2v0c0,1.17,0,2.37,0,3.52v1.83A1.87,1.87,0,0,1,15.81,52h-.3Z"/><path class="cls-1" d="M26.77,50.06H23.5a.89.89,0,1,1-.09-1.78h4.24a1,1,0,0,1,.69.23.86.86,0,0,1,.24.66.82.82,0,0,1-.77.89h-1Z"/><path class="cls-1" d="M23.12,46.19h0a1,1,0,0,1-.5-1.2c.18-.55.66-.62,1.1-.62h8.64c.49,0,1,.08,1.17.65s-.18.89-.53,1.16h-.15Z"/><path class="cls-2" d="M12.76,50.65H10.15c-.25,0-.34,0-.33-.31A5.42,5.42,0,0,1,10,48.69a1.52,1.52,0,0,1,1.61-1.11h2.2a1.73,1.73,0,0,1,1.92,1.82c0,.33,0,.66,0,1s-.07.28-.28.27Z"/><path class="cls-2" d="M14.33,45.41a1.55,1.55,0,1,1-3.1,0,1.55,1.55,0,0,1,3.1,0Z"/><path class="cls-1" d="M15.51,26.38,10,26.3a2,2,0,0,1-1.88-2c-.05-1.87,0-3.69,0-5.4a2,2,0,0,1,2-2h0l2.78,0c.92,0,1.82,0,2.69,0a2,2,0,0,1,1.93,2V19c0,1.17,0,2.37,0,3.52V24.3a1.88,1.88,0,0,1-1.66,2.07h-.3Z"/><path class="cls-1" d="M26.77,24.45H23.5a.9.9,0,0,1-.94-.84.89.89,0,0,1,.85-.94.17.17,0,0,1,.1,0h4.14a1,1,0,0,1,.69.23.86.86,0,0,1,.24.66.82.82,0,0,1-.77.89.85.85,0,0,1-.16,0Z"/><path class="cls-1" d="M23.12,20.58h0a1,1,0,0,1-.5-1.2c.18-.55.66-.63,1.1-.63h8.64c.49,0,1,.08,1.17.65s-.18.89-.53,1.15h-.15Z"/><path class="cls-2" d="M12.76,25H10.15c-.25,0-.34-.05-.33-.31A5.42,5.42,0,0,1,10,23.08,1.53,1.53,0,0,1,11.6,22h2.2a1.74,1.74,0,0,1,1.92,1.83c0,.33,0,.66,0,1s-.07.27-.28.27Z"/><path class="cls-2" d="M14.33,19.8a1.55,1.55,0,1,1-1.54-1.56A1.56,1.56,0,0,1,14.33,19.8Z"/><rect class="cls-3" x="1.83" y="8.25" width="38.29" height="48.87" rx="3.47"/></g></g></svg>